<svg width="20" height="17" viewBox="0 0 20 17" fill="none" xmlns="http://www.w3.org/2000/svg">
<path d="M8.70499 15.069L2.56066 8.92466H19C19.4142 8.92466 19.75 8.58886 19.75 8.17466C19.75 7.76036 19.4142 7.42466 19 7.42466H2.56066L8.70499 1.28033C8.99789 0.987442 8.99789 0.512562 8.70499 0.219672C8.66839 0.183062 8.62889 0.151021 8.58729 0.123561C8.29619 -0.0686485 7.90059 -0.0366082 7.64429 0.219672L0.219668 7.64426C-0.0732225 7.93716 -0.0732225 8.41206 0.219668 8.70496L7.64429 16.1296C7.6809 16.1662 7.72036 16.1983 7.76199 16.2257C8.05309 16.4179 8.44869 16.3859 8.70499 16.1296C8.99789 15.8367 8.99789 15.3618 8.70499 15.069Z" fill="#273E74"/>
</svg>
