<svg width="22" height="19" viewBox="0 0 22 19" fill="none" xmlns="http://www.w3.org/2000/svg">
<path d="M19 4.75L18.375 15.382C18.3413 15.955 18.0899 16.4936 17.6722 16.8873C17.2545 17.281 16.702 17.5002 16.128 17.5H5.372C4.79796 17.5002 4.24555 17.281 3.82783 16.8873C3.41011 16.4936 3.15868 15.955 3.125 15.382L2.5 4.75M8.75 8.5H12.75M2.125 4.75H19.375C19.996 4.75 20.5 4.246 20.5 3.625V2.125C20.5 1.504 19.996 1 19.375 1H2.125C1.504 1 1 1.504 1 2.125V3.625C1 4.246 1.504 4.75 2.125 4.75Z" stroke="#08195D" stroke-width="1.2" stroke-linecap="round" stroke-linejoin="round"/>
</svg>
