<svg width="9" height="16" viewBox="0 0 9 16" fill="none" xmlns="http://www.w3.org/2000/svg">
<g clip-path="url(#clip0_868_14066)">
<path d="M7.87919 13.7453L2.13392 8.00008L7.87919 2.25481C7.90971 2.2243 7.9364 2.19142 7.95929 2.15676C8.01249 2.07617 8.04508 1.98598 8.05704 1.89362C8.06052 1.86682 8.06225 1.83984 8.06225 1.81287C8.06225 1.67205 8.01497 1.53124 7.92039 1.41629C7.90753 1.40067 7.8938 1.38552 7.87919 1.37092C7.86776 1.35948 7.85599 1.34857 7.8439 1.33821C7.59835 1.12738 7.22795 1.13829 6.99531 1.37092L0.80817 7.55808C0.69092 7.67533 0.625089 7.83433 0.625089 8.00008C0.625089 8.16583 0.69092 8.32475 0.80817 8.442L6.99531 14.6292C7.02583 14.6597 7.0587 14.6864 7.09336 14.7092C7.33595 14.8694 7.66563 14.8427 7.87919 14.6292C7.90971 14.5987 7.9364 14.5657 7.95929 14.5312C8.11946 14.2885 8.09277 13.9588 7.87919 13.7453Z" fill="#787878" stroke="#787878" stroke-width="0.4"/>
</g>
<defs>
<clipPath id="clip0_868_14066">
<rect width="9" height="16" fill="white" transform="matrix(-1 0 0 1 9 0)"/>
</clipPath>
</defs>
</svg>
