<svg width="22" height="20" viewBox="0 0 22 20" fill="none" xmlns="http://www.w3.org/2000/svg">
<path d="M1 19H20.5M2.5 1V19M13 1V19M19 5.5V19M5.5 4.75H6.25M5.5 7.75H6.25M5.5 10.75H6.25M9.25 4.75H10M9.25 7.75H10M9.25 10.75H10M5.5 19V15.625C5.5 15.004 6.004 14.5 6.625 14.5H8.875C9.496 14.5 10 15.004 10 15.625V19M1.75 1H13.75M13 5.5H19.75M16 9.25H16.008V9.258H16V9.25ZM16 12.25H16.008V12.258H16V12.25ZM16 15.25H16.008V15.258H16V15.25Z" stroke="#08195D" stroke-width="1.2" stroke-linecap="round" stroke-linejoin="round"/>
</svg>
