<svg width="19" height="19" viewBox="0 0 19 19" fill="none" xmlns="http://www.w3.org/2000/svg">
<path d="M4.375 7.75H5.5C6.09674 7.75 6.66903 7.51295 7.09099 7.09099C7.51295 6.66903 7.75 6.09674 7.75 5.5V4.375M4.375 7.75H3.25C2.65326 7.75 2.08097 7.51295 1.65901 7.09099C1.23705 6.66903 1 6.09674 1 5.5V3.25C1 2.65326 1.23705 2.08097 1.65901 1.65901C2.08097 1.23705 2.65326 1 3.25 1H5.5C6.09674 1 6.66903 1.23705 7.09099 1.65901C7.51295 2.08097 7.75 2.65326 7.75 3.25V4.375M4.375 7.75V10.75M4.375 10.75H3.25C2.65326 10.75 2.08097 10.9871 1.65901 11.409C1.23705 11.831 1 12.4033 1 13V15.25C1 15.8467 1.23705 16.419 1.65901 16.841C2.08097 17.2629 2.65326 17.5 3.25 17.5H5.5C6.09674 17.5 6.66903 17.2629 7.09099 16.841C7.51295 16.419 7.75 15.8467 7.75 15.25V14.125M4.375 10.75H5.5C6.09674 10.75 6.66903 10.9871 7.09099 11.409C7.51295 11.831 7.75 12.4033 7.75 13V14.125M7.75 4.375H10.75M10.75 4.375V5.5C10.75 6.09674 10.9871 6.66903 11.409 7.09099C11.831 7.51295 12.4033 7.75 13 7.75H15.25C15.8467 7.75 16.419 7.51295 16.841 7.09099C17.2629 6.66903 17.5 6.09674 17.5 5.5V3.25C17.5 2.65326 17.2629 2.08097 16.841 1.65901C16.419 1.23705 15.8467 1 15.25 1H13C12.4033 1 11.831 1.23705 11.409 1.65901C10.9871 2.08097 10.75 2.65326 10.75 3.25V4.375ZM7.75 14.125H10.75M10.75 14.125V15.25C10.75 15.8467 10.9871 16.419 11.409 16.841C11.831 17.2629 12.4033 17.5 13 17.5H15.25C15.8467 17.5 16.419 17.2629 16.841 16.841C17.2629 16.419 17.5 15.8467 17.5 15.25V13C17.5 12.4033 17.2629 11.831 16.841 11.409C16.419 10.9871 15.8467 10.75 15.25 10.75H13C12.4033 10.75 11.831 10.9871 11.409 11.409C10.9871 11.831 10.75 12.4033 10.75 13V14.125Z" stroke="#08195D" stroke-width="1.2" stroke-linecap="round" stroke-linejoin="round"/>
</svg>
