<svg width="19" height="22" viewBox="0 0 19 22" fill="none" xmlns="http://www.w3.org/2000/svg">
<path d="M6.25 10.75H10M6.25 13.75H10M6.25 16.75H10M13 17.5H15.25C15.8467 17.5 16.419 17.2629 16.841 16.841C17.2629 16.419 17.5 15.8467 17.5 15.25V4.858C17.5 3.723 16.655 2.76 15.524 2.666C15.15 2.63498 14.7756 2.60831 14.401 2.586M14.401 2.586C14.4674 2.80109 14.5001 3.02491 14.5 3.25C14.5 3.44891 14.421 3.63968 14.2803 3.78033C14.1397 3.92098 13.9489 4 13.75 4H9.25C8.836 4 8.5 3.664 8.5 3.25C8.5 3.019 8.535 2.796 8.6 2.586M14.401 2.586C14.118 1.668 13.262 1 12.25 1H10.75C10.2692 1.00011 9.80115 1.15414 9.41426 1.43954C9.02738 1.72493 8.74203 2.1267 8.6 2.586M8.6 2.586C8.224 2.609 7.85 2.636 7.476 2.666C6.345 2.76 5.5 3.723 5.5 4.858V7M5.5 7H2.125C1.504 7 1 7.504 1 8.125V19.375C1 19.996 1.504 20.5 2.125 20.5H11.875C12.496 20.5 13 19.996 13 19.375V8.125C13 7.504 12.496 7 11.875 7H5.5ZM4 10.75H4.008V10.758H4V10.75ZM4 13.75H4.008V13.758H4V13.75ZM4 16.75H4.008V16.758H4V16.75Z" stroke="#08195D" stroke-width="1.2" stroke-linecap="round" stroke-linejoin="round"/>
</svg>
