<svg width="19" height="20" viewBox="0 0 19 20" fill="none" xmlns="http://www.w3.org/2000/svg">
<path d="M8 17.875C8 18.496 7.216 19 6.25 19H2.75C1.784 19 1 18.496 1 17.875V2.125C1 1.504 1.784 1 2.75 1H6.25C6.71413 1 7.15925 1.11853 7.48744 1.3295C7.81563 1.54048 8 1.82663 8 2.125V17.875Z" stroke="#08195D" stroke-width="1.2" stroke-linecap="round" stroke-linejoin="round"/>
<path d="M16.25 11C17.216 11 18 10.44 18 9.75V2.25C18 1.91848 17.8156 1.60054 17.4874 1.36612C17.1592 1.13169 16.7141 1 16.25 1H12.75C11.784 1 11 1.56 11 2.25V9.75C11 10.44 11.784 11 12.75 11H16.25Z" stroke="#08195D" stroke-width="1.2" stroke-linecap="round" stroke-linejoin="round"/>
</svg>
