<svg width="157" height="45" viewBox="0 0 157 45" fill="none" xmlns="http://www.w3.org/2000/svg">
<g clip-path="url(#clip0_1082_15672)">
<path d="M0.0517578 23.6924H5.35199C5.35199 23.6924 5.5561 24.6761 5.71573 25.2995C5.84611 25.8088 5.91932 26.0949 6.07947 26.5956C6.24336 27.1081 6.34318 27.3937 6.54714 27.8917C6.7155 28.3028 6.82145 28.5286 7.01481 28.9286C7.24355 29.4016 7.37766 29.6646 7.63836 30.121C7.92276 30.6188 8.08774 30.8963 8.41781 31.3652C8.66739 31.7198 8.82484 31.906 9.09333 32.2465C9.254 32.4503 9.34389 32.5648 9.50903 32.765C9.74682 33.0532 9.88083 33.2146 10.1326 33.4908C10.5381 33.9356 10.7773 34.1757 11.2238 34.5795C11.3837 34.724 11.4754 34.8027 11.6395 34.9424C11.9577 35.2133 12.1395 35.3617 12.4709 35.6163C12.77 35.8461 12.9398 35.9725 13.2504 36.1866C13.5884 36.4197 13.7836 36.5424 14.1337 36.7569C14.5134 36.9894 14.731 37.1123 15.121 37.3272C15.5025 37.5372 15.7163 37.6559 16.1083 37.8456C16.6646 38.1148 16.9856 38.2481 17.5633 38.4677C18.163 38.6957 18.5058 38.8082 19.1222 38.9862C19.6848 39.1485 20.0044 39.2269 20.5772 39.3491C21.1416 39.4694 21.4607 39.527 22.0321 39.6083C22.5978 39.6887 22.9171 39.7229 23.4871 39.7638C24.661 39.8481 25.327 39.8481 26.5009 39.7638C27.0709 39.7229 27.3905 39.6909 27.9559 39.6083C28.5072 39.5277 28.814 39.465 29.3589 39.3491C29.8691 39.2405 30.1555 39.1779 30.658 39.038C31.3379 38.8487 31.713 38.7182 32.3728 38.4677C32.8659 38.2805 33.1397 38.1675 33.6199 37.9493C34.1567 37.7054 34.455 37.5607 34.9709 37.2753C35.3849 37.0463 35.6128 36.9097 36.0102 36.6532C36.341 36.4397 36.5215 36.3122 36.8416 36.0829C37.1713 35.8468 37.3562 35.7139 37.673 35.4608C37.9427 35.2453 38.087 35.1159 38.3485 34.8905C38.5118 34.7498 38.6034 34.6711 38.7642 34.5276C39.0533 34.2699 39.2184 34.128 39.4917 33.8537C39.7448 33.5996 39.8806 33.4508 40.1153 33.1797C40.3038 32.9619 40.4013 32.833 40.5829 32.6094C40.8284 32.3073 40.9737 32.1437 41.2065 31.8318C41.5561 31.3634 41.7317 31.0852 42.0379 30.5875C42.2947 30.1702 42.4323 29.9319 42.6615 29.4988C42.9242 29.0023 43.0652 28.7196 43.285 28.2028C43.4632 27.784 43.5482 27.5428 43.7007 27.114C43.8295 26.752 43.9016 26.5487 44.0125 26.1809C44.1514 25.72 44.2245 25.4593 44.3243 24.9885C44.4306 24.487 44.5321 23.6924 44.5321 23.6924H44.9478C44.9478 23.6924 44.9568 24.1033 44.9478 24.3663C44.925 25.039 44.8469 25.4127 44.74 26.0772C44.6548 26.6064 44.598 26.9021 44.4802 27.4251C44.3561 27.9761 44.2759 28.283 44.1164 28.8249C43.9356 29.4392 43.824 29.7814 43.5968 30.3802C43.41 30.8725 43.2924 31.1438 43.0772 31.6244C42.8475 32.137 42.7127 32.4221 42.4536 32.9205C42.1859 33.4355 42.0309 33.7225 41.7261 34.2166C41.4577 34.6517 41.293 34.8871 40.9986 35.3053C40.7234 35.6963 40.5701 35.917 40.2712 36.2903C40.0555 36.5597 39.9204 36.6991 39.6996 36.9643C39.5153 37.1856 39.2319 37.5345 39.2319 37.5345C39.2319 37.5345 38.5689 38.2126 38.4265 38.364C38.284 38.5155 38.1947 38.6063 38.0367 38.7529C37.8476 38.9284 37.7601 39.0201 37.5691 39.1935C37.3558 39.3872 37.2193 39.4762 36.9975 39.6601C36.7317 39.8805 36.592 40.0152 36.322 40.2304C35.9478 40.5287 35.7293 40.6855 35.3347 40.9562C34.9961 41.1885 34.8003 41.3101 34.4513 41.5265C34.1498 41.7134 33.9794 41.8161 33.6719 41.9931C33.1527 42.2917 32.8597 42.4574 32.3208 42.7189C31.8224 42.9607 31.5353 43.0811 31.0217 43.2892C30.5398 43.4844 30.267 43.5883 29.7746 43.7557C29.173 43.9603 28.8305 44.0614 28.2157 44.2223C27.692 44.3594 27.396 44.429 26.8647 44.5334C26.2198 44.66 25.8546 44.7162 25.2019 44.7926C24.7567 44.8447 24.5059 44.8657 24.0587 44.8963C23.6331 44.9255 23.394 44.9388 22.9675 44.9481C22.6023 44.9561 22.3973 44.9556 22.0321 44.9481C21.3411 44.9341 20.9532 44.9118 20.2654 44.8445C19.6541 44.7846 19.312 44.74 18.7065 44.6371C18.0316 44.5224 17.6556 44.4409 16.9917 44.2742C16.3565 44.1147 16.0025 44.0136 15.3809 43.8076C14.8264 43.6239 14.5174 43.5129 13.9779 43.2892C13.4831 43.084 13.2132 42.9513 12.7307 42.7189C12.4038 42.5614 12.2207 42.4726 11.8993 42.3041C11.5295 42.1102 11.3238 41.9977 10.964 41.7857C10.5083 41.5173 10.2568 41.3591 9.82081 41.0599C9.42626 40.7891 9.2118 40.6272 8.83351 40.3341C8.50308 40.0781 8.32308 39.9278 8.0021 39.6601C7.71501 39.4207 7.55299 39.2875 7.27462 39.038C6.63413 38.464 6.2774 38.1337 5.71573 37.4827C5.52757 37.2646 5.43097 37.1349 5.24806 36.9124C4.96464 36.5677 4.78943 36.3873 4.52058 36.0311C4.23954 35.6588 4.10626 35.4325 3.84506 35.0461C3.64052 34.7435 3.51932 34.5779 3.32543 34.2684C3.0653 33.8532 2.93748 33.6093 2.70187 33.1797C2.44917 32.7189 2.30464 32.4615 2.07832 31.9873C1.78506 31.3728 1.64208 31.0175 1.4028 30.3802C1.12592 29.6427 0.987134 29.2217 0.77924 28.462C0.61459 27.8603 0.537846 27.5183 0.415499 26.9067C0.294708 26.3028 0.22659 25.9631 0.155684 25.3514C0.0809345 24.7065 0.0517578 23.6924 0.0517578 23.6924Z" fill="#4E5DA1"/>
<path d="M21.097 0.0520991C22.1908 -0.0147622 22.8093 -0.0147622 23.903 0.0520991C24.5339 0.0906615 24.8873 0.125125 25.5139 0.207629C26.1258 0.288197 26.468 0.343701 27.0728 0.466845C27.6659 0.587637 27.9972 0.665381 28.5797 0.82975C29.0923 0.974367 29.3749 1.07211 29.8788 1.2445C30.3281 1.39823 30.582 1.48044 31.022 1.65924C31.5181 1.86089 31.7862 1.99794 32.2691 2.22952C32.678 2.42566 32.9093 2.53236 33.3083 2.74795C33.7643 2.99433 34.0137 3.14467 34.4515 3.42192C34.7604 3.61751 34.93 3.7329 35.231 3.94035C35.5182 4.13832 35.679 4.25 35.9585 4.45878C36.2477 4.67484 36.406 4.80113 36.6859 5.02906C36.9537 5.24706 37.3625 5.58482 37.7772 5.96224C38.392 6.52184 38.7407 6.83673 39.2841 7.46569C39.4724 7.68364 40.0436 8.32629 40.4792 8.91731C40.756 9.29281 40.8961 9.51418 41.1548 9.90233C41.4882 10.4028 41.681 10.6803 41.9862 11.1984C42.2668 11.6749 42.4132 11.9487 42.6617 12.4427C42.9223 12.9608 43.0596 13.2563 43.2853 13.7906C43.5297 14.3693 43.6568 14.6986 43.8568 15.294C44.065 15.9137 44.1611 16.2683 44.3245 16.9012C44.4595 17.4243 44.5332 17.7187 44.6363 18.2491C44.769 18.9321 44.8236 19.3198 44.8961 20.0118C44.9194 20.2342 44.9371 20.3587 44.9481 20.5821C44.961 20.845 44.9481 21.256 44.9481 21.256H39.6478C39.6478 21.256 39.4231 20.1116 39.2321 19.3897C39.0863 18.8384 39.0045 18.5283 38.8164 17.9899C38.6366 17.4751 38.5163 17.193 38.2968 16.6938C38.0707 16.1797 37.9339 15.8953 37.6732 15.3977C37.4796 15.0283 37.3697 14.8214 37.1536 14.4645C36.8888 14.0272 36.7275 13.789 36.4261 13.3758C36.2303 13.1073 35.9065 12.7019 35.9065 12.7019C35.9065 12.7019 35.6585 12.3815 35.4908 12.1834C35.3331 11.9972 35.2379 11.8986 35.0751 11.7168C34.8931 11.5138 34.794 11.3973 34.6074 11.1984C34.2936 10.864 34.12 10.6724 33.776 10.3689C33.56 10.1783 33.4755 10.0894 33.2564 9.90233C33.0707 9.74379 32.925 9.64296 32.7368 9.48758C32.3895 9.20105 32.1716 9.06983 31.8014 8.81362C31.4407 8.56394 31.2388 8.42288 30.8661 8.1915C30.4878 7.95665 30.2687 7.83632 29.8788 7.62122C29.5769 7.45465 29.4083 7.35957 29.0993 7.20648C28.6029 6.96048 28.3136 6.84477 27.8003 6.6362C27.3779 6.4646 27.141 6.36719 26.709 6.22146C26.2284 6.05934 25.9522 5.98868 25.4619 5.85855C24.9577 5.72474 24.6742 5.65087 24.1629 5.54749C23.5187 5.41726 23.1528 5.36464 22.5 5.28828C22.0548 5.23617 21.8043 5.21284 21.3568 5.18459C20.324 5.1193 19.7396 5.11994 18.7067 5.18459C18.0961 5.2228 17.7537 5.25535 17.1478 5.34012C16.5762 5.42006 16.2577 5.48061 15.6929 5.59934C15.1823 5.70665 14.8963 5.77042 14.3938 5.9104C13.8808 6.05328 13.5969 6.14799 13.0947 6.32514C12.5191 6.52816 12.199 6.65129 11.6398 6.89542C11.1242 7.12047 10.8378 7.25443 10.3407 7.51754C9.84257 7.78116 9.56898 7.94094 9.09357 8.24335C8.8468 8.40033 8.71112 8.49256 8.47001 8.65809C8.1824 8.85556 8.02079 8.96614 7.74253 9.17652C7.40908 9.42864 7.22934 9.57955 6.91112 9.85049C6.74702 9.99021 6.65687 10.0707 6.49542 10.2134C6.29105 10.394 6.17548 10.4942 5.97579 10.68C5.57692 11.0509 5.35634 11.2634 4.98848 11.665C4.58009 12.1109 4.19563 12.6076 4.00118 12.8574C3.74215 13.1901 3.61255 13.3886 3.37762 13.7387C3.12392 14.1168 2.98592 14.332 2.75407 14.7238C2.44941 15.2386 2.2851 15.5323 2.02659 16.0717C1.77944 16.5873 1.65853 16.8853 1.45499 17.4196C1.227 18.0181 1.10955 18.3587 0.935361 18.9749C0.765676 19.5752 0.67699 19.9155 0.57162 20.5302C0.523247 20.8124 0.467694 21.256 0.467694 21.256H0.0519897C0.0519897 21.256 0.0448761 20.9084 0.0519897 20.6857C0.069558 20.136 0.105256 19.8306 0.181907 19.286C0.298643 18.4565 0.344248 18.3654 0.467694 17.7825C0.604928 17.1345 0.670625 16.8928 0.831435 16.3309C1.04287 15.5921 1.17885 15.1817 1.45499 14.4645C1.66043 13.931 1.79069 13.6375 2.02659 13.1166C2.20226 12.7287 2.49425 12.1316 2.49425 12.1316C2.49425 12.1316 2.80308 11.5584 3.01388 11.1984C3.30362 10.7037 3.4709 10.4283 3.79333 9.95417C4.04628 9.58215 4.1969 9.37944 4.46885 9.02099C4.68692 8.73357 4.81132 8.5739 5.04044 8.29519C5.27772 8.00652 5.71597 7.46569 6.26158 6.89542C6.8072 6.32514 6.89496 6.23571 7.32683 5.85855C7.54382 5.66901 7.95002 5.30906 8.36609 4.97722C8.62601 4.76985 8.77415 4.65645 9.04161 4.45878C9.38087 4.208 9.57407 4.07105 9.92498 3.83666C10.3039 3.58354 10.5216 3.44926 10.9123 3.21454C11.3327 2.96192 11.5689 2.82011 12.0035 2.59242C12.4616 2.35242 12.7299 2.24076 13.1987 2.02215C13.4618 1.89938 13.6073 1.82573 13.8742 1.71109C14.4108 1.48054 14.7236 1.37925 15.2772 1.19265C15.6602 1.06352 15.8764 0.994674 16.2645 0.881594C16.8078 0.72329 17.1147 0.640144 17.6675 0.518689C18.3712 0.36406 18.7717 0.301346 19.4862 0.207629C20.1128 0.125434 20.4662 0.0906615 21.097 0.0520991Z" fill="white"/>
<path d="M20.7334 15.1387H25.2022L27.3327 25.611L29.5152 15.1387H33.984V30.0177H31.2299V18.353L28.5279 30.0177H26.1895L23.4874 18.353V30.0177H20.7334V15.1387Z" fill="#4E5DA1"/>
<path d="M10.9641 15.1387H13.926V27.5811H19.2262V30.0177H10.9121V15.1905L10.9641 15.1387Z" fill="#4E5DA1"/>
</g>
<path d="M89.7227 25.5674H92.1261L92.3791 26.0734L93.0748 27.8443L94.15 30.564L95.7312 34.5486L97.0594 37.9007L97.1226 38.0904L97.1859 25.5674H99.0201L99.0833 25.6306V40.6204L99.0201 40.6836H96.4902L93.9603 34.3588L91.6833 28.6033L91.6201 40.6836H89.7227V25.5674Z" fill="white"/>
<path d="M122.043 25.5674H127.103L127.925 25.6939L128.684 25.9469L129.38 26.3896L129.886 26.8956L130.392 27.9076L130.581 28.9195V29.8682L130.392 30.6272L129.949 31.5127L129.569 31.9554L128.937 32.3981L128.494 32.6511L129.316 32.9674L130.012 33.4734L130.518 34.1058L130.834 34.8016L131.024 35.687V37.1417L130.834 38.0904L130.518 38.8494L130.075 39.4187L129.506 39.9246L128.747 40.3041L127.862 40.5571L126.976 40.6836H122.043V25.5674ZM123.94 27.1486V32.1452H126.028L126.976 32.0187L127.609 31.7657L128.178 31.2597L128.494 30.6272L128.621 30.1212V29.046L128.368 28.2238L127.988 27.7178L127.419 27.3383L126.787 27.1486H123.94ZM123.94 33.4734V39.1657H126.723L127.609 38.9759L128.115 38.7229L128.621 38.2169L129 37.458L129.127 36.8255V35.8768L128.937 35.1178L128.684 34.6118L128.178 34.0426L127.482 33.6631L126.597 33.4734H123.94Z" fill="white"/>
<path d="M131.15 4.25293H136.59L137.349 4.37943L138.044 4.63242L138.74 5.07515L139.246 5.58113L139.626 6.21361L139.879 6.97259L139.942 7.35207V8.80677L139.752 9.75549L139.373 10.641L138.803 11.2734L138.297 11.6529L137.791 11.9059L138.424 12.0957L138.93 12.4751L139.309 12.9179L139.562 13.4239L139.752 14.1828L139.942 17.535L140.132 18.5469L140.385 19.0529L140.638 19.3692H138.424L138.171 18.8632L137.981 17.8512L137.728 14.4991L137.538 13.7401L137.285 13.2341L136.779 12.8546L136.02 12.6649L133.048 12.6016V19.3692H131.214L131.15 19.3059V4.25293ZM133.048 5.77088V11.1469H135.388L136.273 11.0204L136.906 10.7675L137.538 10.1982L137.855 9.5025L137.981 8.93327V7.66831L137.791 7.03583L137.349 6.4666L136.843 6.08712L136.02 5.83412L135.578 5.77088H133.048Z" fill="white"/>
<path d="M81.8172 25.3145H83.3984L84.3471 25.5674L85.106 25.9469L85.7385 26.4529L86.3078 27.2119L86.8137 28.2239L87.13 29.2991L87.383 30.8803L87.4462 31.576V34.6751L87.2565 36.3828L86.9402 37.6478L86.5607 38.5965L86.0548 39.4187L85.5488 39.9879L84.9163 40.4307L84.2206 40.7469L83.4616 40.9367L82.3864 40.9999L81.3744 40.8734L80.489 40.5572L79.7932 40.1144L79.1608 39.482L78.6548 38.6597L78.2753 37.711L77.959 36.5093L77.7693 35.0546L77.7061 33.9794V32.335L77.8326 30.6273L78.0855 29.1726L78.5283 27.8444L79.0343 26.9589L79.73 26.1999L80.4257 25.7572L81.1847 25.4409L81.8172 25.3145ZM82.1334 26.8324L81.5009 27.0221L80.9317 27.4016L80.5522 27.8444L80.1727 28.6033L79.9197 29.4888L79.73 30.8803L79.6667 31.9555V34.3589L79.7932 36.0666L80.0462 37.3315L80.4257 38.2803L80.9317 38.9127L81.5009 39.2922L82.2599 39.482H82.9556L83.5249 39.3555L84.1573 38.976L84.6633 38.4067L85.0428 37.6478L85.359 36.3196L85.4855 35.0546V31.1965L85.2958 29.6153L85.0428 28.6666L84.6001 27.7811L84.3471 27.4649L83.8411 27.0854L83.3351 26.8956L83.0821 26.8324H82.1334Z" fill="white"/>
<path d="M123.117 4H124.888L125.837 4.25299L126.533 4.63248L127.165 5.13846L127.735 5.89743L128.24 6.9094L128.557 7.98461L128.746 8.99658L128.873 10.2615V13.3607L128.683 15.0051L128.367 16.3333L127.988 17.282L127.608 17.9145L127.039 18.6102L126.533 18.9897L125.647 19.4325L124.825 19.6222H123.181L122.232 19.3692L121.599 19.053L121.03 18.6102L120.461 17.9778L119.955 17.0923L119.512 15.7641L119.259 14.3726L119.133 12.6017V11.0205L119.259 9.31282L119.512 7.85812L119.955 6.52991L120.461 5.64444L121.03 5.01196L121.663 4.50598L122.358 4.18974L123.117 4ZM123.497 5.51795L122.738 5.77094L122.105 6.34017L121.726 6.97265L121.41 7.85812L121.22 8.93333L121.093 10.5778V13.1077L121.22 14.7521L121.473 15.9538L121.726 16.7128L122.169 17.4085L122.738 17.8513L123.117 18.041L123.687 18.1675H124.319L125.078 17.9778L125.647 17.5983L126.09 17.0923L126.406 16.4598L126.659 15.6376L126.849 14.4991L126.912 13.7402V9.88205L126.723 8.30085L126.406 7.16239L126.027 6.46666L125.647 6.02393L125.015 5.64444L124.509 5.51795H123.497Z" fill="white"/>
<path d="M149.556 4.25293H152.086L152.528 5.77088L153.667 10.0717L154.869 14.5623L156.134 19.3059V19.3692H154.173L154.046 18.9897L153.098 15.3845V15.1948H148.291L148.164 15.8273L147.216 19.3059L147.152 19.3692H145.255L145.318 18.9264L146.963 13.2341L148.354 8.42729L149.556 4.25293ZM150.757 6.40336L150.251 8.0478L149.176 11.8427L148.67 13.6136V13.6769H152.718L152.022 10.9572L150.821 6.40336H150.757Z" fill="white"/>
<path d="M59.3009 4.25293H61.8308L62.2735 5.77088L63.159 9.12301L64.1077 12.6649L65.3726 17.4085L65.8786 19.3692H63.9179L63.5385 18.041L62.8427 15.3845V15.1948H58.0359L57.7829 16.27L56.9607 19.3059L56.8974 19.3692H55L55.1265 18.6734L56.3282 14.5623L57.5299 10.388L58.7949 6.02387L59.3009 4.25293ZM60.5026 6.4666L60.3128 6.97259L58.4154 13.6136V13.6769H62.4632L61.7675 10.9572L60.6291 6.65635L60.5026 6.4666Z" fill="white"/>
<path d="M114.453 25.5674H116.92L117.299 26.8956L118.248 30.4375L119.703 35.8768L120.967 40.6204V40.6836H119.007L118.754 39.8614L117.932 36.699V36.5093H113.125L112.998 37.1417L112.05 40.6204L111.986 40.6836H110.089L110.215 40.0511L111.417 35.8768L112.809 31.0699L114.073 26.7058L114.39 25.6306L114.453 25.5674ZM115.591 27.7811L115.402 28.287L113.504 34.9281L113.567 35.0546H117.489L117.552 34.9281L116.161 29.6152L115.655 27.7811H115.591Z" fill="white"/>
<path d="M70.0524 4H72.0131L73.025 4.25299L73.784 4.63248L74.3532 5.13846L74.796 5.83419L75.049 6.46666L75.2387 7.47863V8.17435H73.4045L73.2148 7.03589L72.9618 6.40342L72.5823 5.96068L71.9498 5.64444L71.6336 5.58119H70.4951L69.6729 5.83419L69.2934 6.08718L68.9139 6.52991L68.6609 7.22564L68.5977 7.66837V8.2376L68.7242 8.87008L69.0404 9.50256L69.5464 10.0085L70.5584 10.5145L71.6336 10.894L73.2148 11.4632L74.1635 11.9692L74.796 12.5385L75.2387 13.1077L75.5549 13.9299L75.6814 14.6889V15.6376L75.4917 16.7128L75.1755 17.535L74.7327 18.1675L74.1635 18.7367L73.278 19.2427L72.5191 19.4957L71.8233 19.6222H69.9891L68.8507 19.3692L67.9652 18.9265L67.5857 18.6102V18.4837H67.4592L66.9532 17.7248L66.7003 17.029L66.5105 16.2068L66.4473 15.7008V14.6256H68.2815L68.3447 15.7641L68.5344 16.6496L68.8507 17.282L69.3567 17.7248L69.9891 17.9778L70.6849 18.1043H71.4438L72.2028 17.9145L72.8985 17.4718L73.278 17.029L73.5943 16.3333L73.7208 15.5111L73.5943 14.5624L73.278 13.9299L72.772 13.4239L72.0131 12.9812L70.6849 12.4752L69.4199 12.0325L68.4079 11.5265L67.8387 11.147L67.3327 10.641L66.9532 10.0085L66.7003 9.31282L66.5738 8.42735V7.85812L66.7635 6.71966L67.143 5.83419L67.5857 5.26496L68.0917 4.75897L68.7242 4.37949L69.4199 4.1265L70.0524 4Z" fill="white"/>
<path d="M101.171 4H103.131L104.143 4.25299L104.902 4.63248L105.471 5.13846L105.914 5.83419L106.167 6.46666L106.357 7.41538V8.17435H104.523L104.333 7.03589L104.08 6.40342L103.7 5.96068L103.068 5.64444L102.752 5.58119H101.613L100.791 5.83419L100.285 6.21367L99.9056 6.7829L99.7791 7.22564L99.7159 8.17435L99.8424 8.87008L100.159 9.50256L100.601 9.94529L101.234 10.3248L102.309 10.7675L104.206 11.4L105.282 11.9692L105.914 12.5385L106.357 13.1077L106.673 13.9299L106.8 14.6889V15.6376L106.673 16.4598L106.42 17.282L105.977 18.041L105.282 18.7367L104.396 19.2427L103.637 19.4957L102.941 19.6222H101.107L99.9688 19.3692L99.0834 18.9265L98.7039 18.6102V18.4837H98.5774L98.1347 17.788L97.8184 17.029L97.6287 16.2068L97.5654 15.6376V14.6256H99.3996L99.4629 15.7641L99.6526 16.6496L99.9688 17.282L100.475 17.7248L101.107 17.9778L101.803 18.1043H102.562L103.321 17.9145L104.017 17.4718L104.396 17.029L104.649 16.5231L104.776 16.1436L104.839 15.4479L104.712 14.5624L104.396 13.9299L103.89 13.4239L103.131 12.9812L101.803 12.4752L100.538 12.0325L99.5261 11.5265L98.9569 11.147L98.4509 10.641L98.0714 10.0085L97.8184 9.31282L97.6919 8.30085L97.7552 7.35213L97.9449 6.59316L98.2612 5.83419L98.7039 5.26496L99.2099 4.75897L99.8424 4.37949L100.538 4.1265L101.171 4Z" fill="white"/>
<path d="M80.6784 4H82.639L83.651 4.25299L84.41 4.63248L85.0425 5.20171L85.422 5.83419L85.7382 6.65641L85.8647 7.35213V8.17435H84.0305L83.8408 6.97265L83.4613 6.21367L83.0185 5.83419L82.5758 5.64444L82.2596 5.58119H81.1211L80.2989 5.83419L79.7929 6.21367L79.5399 6.52991L79.2869 7.28889L79.2237 8.17435L79.4134 9.05982L79.7929 9.62905L80.2989 10.0718L81.3108 10.5778L83.7143 11.4L84.7262 11.906L85.3587 12.412L85.8647 13.1077L86.1809 13.8667L86.3074 14.5624V15.7641L86.1177 16.7761L85.8014 17.535L85.3587 18.1675L84.7895 18.7367L83.904 19.2427L83.145 19.4957L82.5126 19.6222H80.6151L79.4767 19.3692L78.5912 18.9265L77.8955 18.2308L77.3895 17.2188L77.1365 16.1436L77.0732 15.5743V14.6256H78.9074L79.0339 16.1436L79.2237 16.7761L79.6032 17.4085L80.2356 17.8513L80.8681 18.041L81.3108 18.1043H82.0698L82.8288 17.9145L83.4613 17.535L83.904 17.029L84.2202 16.3966L84.3467 15.7641V15.1949L84.157 14.3726L83.7775 13.8034L83.2083 13.2974L82.1963 12.7914L80.0459 12.0325L79.0339 11.5265L78.4014 11.0838L77.9587 10.641L77.516 9.88205L77.263 8.99658V7.35213L77.516 6.40342L77.8955 5.64444L78.4647 5.01196L78.9074 4.63248L79.6664 4.25299L80.6784 4Z" fill="white"/>
<path d="M111.797 4H113.757L114.769 4.25299L115.528 4.63248L116.161 5.20171L116.54 5.83419L116.793 6.46666L116.983 7.35213V8.17435H115.149L114.959 6.97265L114.706 6.40342L114.326 5.96068L113.694 5.64444L113.378 5.58119H112.239L111.417 5.83419L110.911 6.21367L110.595 6.65641L110.405 7.28889L110.342 8.11111L110.468 8.87008L110.785 9.50256L111.227 9.94529L112.113 10.4513L114.832 11.4L115.718 11.8427L116.287 12.2855L116.603 12.6017L116.983 13.1077L117.299 13.8667L117.426 14.5624V15.7641L117.236 16.7761L116.92 17.535L116.477 18.1675L115.908 18.7367L115.275 19.1162L114.516 19.4325L113.567 19.6222H111.733L110.595 19.3692L109.709 18.9265L109.014 18.2308L108.508 17.2188L108.255 16.1436L108.191 15.5743V14.6256H110.026L110.089 15.7008L110.279 16.6496L110.658 17.3453L111.227 17.788L111.986 18.041L112.429 18.1043H113.188L113.947 17.9145L114.579 17.535L115.085 16.9658L115.338 16.3966L115.465 15.7641V15.1949L115.275 14.3726L114.896 13.8034L114.832 13.6137L114.579 13.4872L113.884 13.0444L112.619 12.5385L111.038 11.9692L110.026 11.4632L109.456 11.0205L108.95 10.4513L108.571 9.6923L108.381 8.93333V7.35213L108.634 6.40342L109.014 5.64444L109.583 5.01196L110.215 4.50598L111.164 4.1265L111.797 4Z" fill="white"/>
<path d="M88.2686 4.25293H96.048V5.96062H90.1027V10.641H95.7318V12.2854H90.1027V17.6615H96.301V19.3692H88.2686V4.25293Z" fill="white"/>
<path d="M70.749 25.3145H72.4567L73.5319 25.5674L74.2909 25.9469L74.9234 26.5162L75.3661 27.0854L75.7456 27.9709L75.9353 28.7298L75.9986 29.1726V29.9948H74.1012L73.9114 28.7298L73.6584 28.0341L73.2789 27.4649L72.7097 27.0854L72.0772 26.8956H71.1285L70.496 27.0854L69.9901 27.4016L69.5473 27.9076L69.2311 28.5401L68.9781 29.4256L68.7883 30.6905L68.7251 31.5127V34.8016L68.8516 36.1931L69.1046 37.3315L69.4208 38.1538L69.8003 38.723L70.243 39.1025L70.8755 39.3555L71.1918 39.4187H71.9507L72.52 39.2922L73.0892 38.976L73.5319 38.47L73.8482 37.8375L74.1012 36.6991L74.2277 35.4973H76.1251V36.1931L75.8721 37.5213L75.4926 38.5332L75.1131 39.229L74.5439 39.9247L73.7849 40.4939L73.026 40.8102L72.4567 40.9367L71.3815 40.9999L70.3695 40.8734L69.5473 40.6204L68.7251 40.1144L68.0926 39.482L67.5866 38.6597L67.2072 37.711L66.8909 36.3828L66.7644 35.3709L66.7012 34.4221V31.9555L66.8277 30.5008L67.0807 29.1093L67.4601 27.9709L67.9661 27.0221L68.6619 26.2632L69.1678 25.8837L69.8003 25.5674L70.749 25.3145Z" fill="white"/>
<path d="M100.475 25.5674H109.962V27.2751H106.167V40.6836H104.269V27.2751H100.475V25.5674Z" fill="white"/>
<path d="M137.412 25.5674H139.31V39.0392H145.445V40.6836H137.412V25.5674Z" fill="white"/>
<path d="M133.048 25.5674H134.945V40.6836H133.048V25.5674Z" fill="white"/>
<path d="M142.219 4.25293H144.053V19.3692H142.219V4.25293Z" fill="white"/>
<path d="M116.097 21.7734H118.121L117.742 22.3427L116.856 23.4811L115.908 24.7461H114.643L114.706 24.4298L115.212 23.4179L115.781 22.3427L116.034 21.8367L116.097 21.7734Z" fill="white"/>
<defs>
<clipPath id="clip0_1082_15672">
<rect width="45" height="45" fill="white"/>
</clipPath>
</defs>
</svg>
