<svg width="19" height="19" viewBox="0 0 19 19" fill="none" xmlns="http://www.w3.org/2000/svg">
<path d="M6.252 3.247H18.252M6.252 9.25H18.25M6.25 15.249H18.25M2.127 4.75V1H1M1 4.75H2.125H3.25M1.33 7.327C1.43343 7.21824 1.55757 7.13127 1.69512 7.07122C1.83267 7.01117 1.98085 6.97925 2.13092 6.97734C2.281 6.97543 2.42994 7.00357 2.56897 7.0601C2.70801 7.11663 2.83432 7.20041 2.94048 7.3065C3.04665 7.4126 3.1305 7.53886 3.18712 7.67786C3.24374 7.81686 3.27197 7.96578 3.27016 8.11586C3.26834 8.26593 3.23651 8.41413 3.17655 8.55172C3.11659 8.68931 3.0297 8.8135 2.921 8.917L1.091 10.747H3.251M1 13H2.125C2.42337 13 2.70952 13.1185 2.9205 13.3295C3.13147 13.5405 3.25 13.8266 3.25 14.125C3.25 14.4234 3.13147 14.7095 2.9205 14.9205C2.70952 15.1315 2.42337 15.25 2.125 15.25H1.75M1.75 15.248H2.125C2.42337 15.248 2.70952 15.3665 2.9205 15.5775C3.13147 15.7885 3.25 16.0746 3.25 16.373C3.25 16.6714 3.13147 16.9575 2.9205 17.1685C2.70952 17.3795 2.42337 17.498 2.125 17.498H1" stroke="#08195D" stroke-width="1.2" stroke-linecap="round" stroke-linejoin="round"/>
</svg>
