<svg width="19" height="19" viewBox="0 0 19 19" fill="none" xmlns="http://www.w3.org/2000/svg">
<path d="M1.5625 13.7002C1.72494 13.7002 1.88025 13.765 1.99512 13.8799C2.10998 13.9947 2.1748 14.1501 2.1748 14.3125V17.4502H5.3125C5.47495 17.4502 5.63025 17.515 5.74512 17.6299C5.85998 17.7447 5.9248 17.9001 5.9248 18.0625C5.9248 18.2249 5.85998 18.3803 5.74512 18.4951C5.63025 18.61 5.47495 18.6748 5.3125 18.6748H1.5625C1.40005 18.6748 1.24475 18.61 1.12988 18.4951C1.01502 18.3803 0.950195 18.2249 0.950195 18.0625V14.3125C0.950195 14.1501 1.01502 13.9947 1.12988 13.8799C1.24475 13.765 1.40006 13.7002 1.5625 13.7002ZM18.0625 13.7002C18.2249 13.7002 18.3803 13.765 18.4951 13.8799C18.61 13.9947 18.6748 14.1501 18.6748 14.3125V18.0625C18.6748 18.2249 18.61 18.3803 18.4951 18.4951C18.3803 18.61 18.2249 18.6748 18.0625 18.6748H14.3125C14.1501 18.6748 13.9947 18.61 13.8799 18.4951C13.765 18.3803 13.7002 18.2249 13.7002 18.0625C13.7002 17.9001 13.765 17.7447 13.8799 17.6299C13.9947 17.515 14.1501 17.4502 14.3125 17.4502H17.4502V14.3125C17.4502 14.1501 17.515 13.9947 17.6299 13.8799C17.7447 13.765 17.9001 13.7002 18.0625 13.7002ZM14.3125 4.7002C14.4749 4.7002 14.6303 4.76502 14.7451 4.87988C14.86 4.99475 14.9248 5.15005 14.9248 5.3125V14.3125C14.9248 14.4749 14.86 14.6303 14.7451 14.7451C14.6303 14.86 14.4749 14.9248 14.3125 14.9248H5.3125C5.15005 14.9248 4.99475 14.86 4.87988 14.7451C4.76502 14.6303 4.7002 14.4749 4.7002 14.3125V5.3125C4.7002 5.15005 4.76502 4.99475 4.87988 4.87988C4.99475 4.76502 5.15005 4.7002 5.3125 4.7002H14.3125ZM5.9248 13.7002H13.7002V5.9248H5.9248V13.7002ZM5.3125 0.950195C5.47495 0.950195 5.63025 1.01502 5.74512 1.12988C5.85998 1.24475 5.9248 1.40005 5.9248 1.5625C5.9248 1.72495 5.85998 1.88025 5.74512 1.99512C5.63025 2.10998 5.47495 2.1748 5.3125 2.1748H2.1748V5.3125C2.1748 5.47495 2.10998 5.63025 1.99512 5.74512C1.88025 5.85998 1.72495 5.9248 1.5625 5.9248C1.40005 5.9248 1.24475 5.85998 1.12988 5.74512C1.01502 5.63025 0.950195 5.47495 0.950195 5.3125V1.5625L0.961914 1.44238C0.985457 1.32468 1.04375 1.21602 1.12988 1.12988C1.24475 1.01502 1.40005 0.950195 1.5625 0.950195H5.3125ZM18.0625 0.950195C18.2249 0.950195 18.3803 1.01502 18.4951 1.12988C18.61 1.24475 18.6748 1.40005 18.6748 1.5625V5.3125C18.6748 5.47495 18.61 5.63025 18.4951 5.74512C18.3803 5.85998 18.2249 5.9248 18.0625 5.9248C17.9001 5.9248 17.7447 5.85998 17.6299 5.74512C17.515 5.63025 17.4502 5.47495 17.4502 5.3125V2.1748H14.3125C14.1501 2.1748 13.9947 2.10998 13.8799 1.99512C13.765 1.88025 13.7002 1.72494 13.7002 1.5625C13.7002 1.40006 13.765 1.24475 13.8799 1.12988C13.9947 1.01502 14.1501 0.950195 14.3125 0.950195H18.0625Z" fill="#08195D" stroke="#08195D" stroke-width="0.1"/>
</svg>
