<svg width="45" height="45" viewBox="0 0 45 45" fill="none" xmlns="http://www.w3.org/2000/svg">
<g clip-path="url(#clip0_223_2886)">
<path d="M0.052002 23.6924H5.35223C5.35223 23.6924 5.55634 24.6761 5.71597 25.2995C5.84635 25.8088 5.91957 26.0949 6.07972 26.5956C6.24361 27.1081 6.34343 27.3937 6.54738 27.8917C6.71574 28.3028 6.8217 28.5286 7.01505 28.9286C7.24379 29.4016 7.37791 29.6646 7.63861 30.121C7.923 30.6188 8.08798 30.8963 8.41805 31.3652C8.66763 31.7198 8.82508 31.906 9.09357 32.2465C9.25424 32.4503 9.34414 32.5648 9.50928 32.765C9.74706 33.0532 9.88107 33.2146 10.1328 33.4908C10.5383 33.9356 10.7775 34.1757 11.2241 34.5795C11.3839 34.724 11.4757 34.8027 11.6398 34.9424C11.958 35.2133 12.1397 35.3617 12.4712 35.6163C12.7702 35.8461 12.9401 35.9725 13.2506 36.1866C13.5886 36.4197 13.7838 36.5424 14.134 36.7569C14.5137 36.9894 14.7313 37.1123 15.1213 37.3272C15.5027 37.5372 15.7166 37.6559 16.1086 37.8456C16.6648 38.1148 16.9859 38.2481 17.5635 38.4677C18.1632 38.6957 18.506 38.8082 19.1224 38.9862C19.685 39.1485 20.0047 39.2269 20.5774 39.3491C21.1418 39.4694 21.4609 39.527 22.0324 39.6083C22.5981 39.6887 22.9174 39.7229 23.4873 39.7638C24.6613 39.8481 25.3272 39.8481 26.5012 39.7638C27.0712 39.7229 27.3907 39.6909 27.9562 39.6083C28.5075 39.5277 28.8142 39.465 29.3592 39.3491C29.8694 39.2405 30.1557 39.1779 30.6582 39.038C31.3381 38.8487 31.7132 38.7182 32.373 38.4677C32.8661 38.2805 33.1399 38.1675 33.6201 37.9493C34.157 37.7054 34.4553 37.5607 34.9712 37.2753C35.3851 37.0463 35.613 36.9097 36.0104 36.6532C36.3413 36.4397 36.5217 36.3122 36.8418 36.0829C37.1715 35.8468 37.3564 35.7139 37.6732 35.4608C37.943 35.2453 38.0872 35.1159 38.3488 34.8905C38.512 34.7498 38.6036 34.6711 38.7645 34.5276C39.0535 34.2699 39.2186 34.128 39.492 33.8537C39.7451 33.5996 39.8808 33.4508 40.1155 33.1797C40.304 32.9619 40.4016 32.833 40.5832 32.6094C40.8286 32.3073 40.9739 32.1437 41.2067 31.8318C41.5563 31.3634 41.7319 31.0852 42.0381 30.5875C42.2949 30.1702 42.4325 29.9319 42.6617 29.4988C42.9244 29.0023 43.0654 28.7196 43.2853 28.2028C43.4634 27.784 43.5484 27.5428 43.701 27.114C43.8298 26.752 43.9019 26.5487 44.0127 26.1809C44.1517 25.72 44.2247 25.4593 44.3245 24.9885C44.4308 24.487 44.5324 23.6924 44.5324 23.6924H44.9481C44.9481 23.6924 44.957 24.1033 44.9481 24.3663C44.9252 25.039 44.8472 25.4127 44.7402 26.0772C44.655 26.6064 44.5982 26.9021 44.4804 27.4251C44.3563 27.9761 44.2761 28.283 44.1167 28.8249C43.9359 29.4392 43.8242 29.7814 43.597 30.3802C43.4103 30.8725 43.2927 31.1438 43.0774 31.6244C42.8478 32.137 42.7129 32.4221 42.4538 32.9205C42.1861 33.4355 42.0311 33.7225 41.7264 34.2166C41.4579 34.6517 41.2933 34.8871 40.9989 35.3053C40.7236 35.6963 40.5703 35.917 40.2714 36.2903C40.0557 36.5597 39.9207 36.6991 39.6998 36.9643C39.5155 37.1856 39.2321 37.5345 39.2321 37.5345C39.2321 37.5345 38.5691 38.2126 38.4267 38.364C38.2843 38.5155 38.195 38.6063 38.037 38.7529C37.8478 38.9284 37.7603 39.0201 37.5693 39.1935C37.356 39.3872 37.2196 39.4762 36.9977 39.6601C36.7319 39.8805 36.5922 40.0152 36.3222 40.2304C35.948 40.5287 35.7296 40.6855 35.3349 40.9562C34.9963 41.1885 34.8005 41.3101 34.4515 41.5265C34.1501 41.7134 33.9796 41.8161 33.6721 41.9931C33.153 42.2917 32.86 42.4574 32.3211 42.7189C31.8226 42.9607 31.5355 43.0811 31.022 43.2892C30.5401 43.4844 30.2672 43.5883 29.7749 43.7557C29.1732 43.9603 28.8307 44.0614 28.216 44.2223C27.6922 44.3594 27.3962 44.429 26.8649 44.5334C26.2201 44.66 25.8549 44.7162 25.2021 44.7926C24.7569 44.8447 24.5062 44.8657 24.0589 44.8963C23.6333 44.9255 23.3942 44.9388 22.9677 44.9481C22.6025 44.9561 22.3976 44.9556 22.0324 44.9481C21.3414 44.9341 20.9535 44.9118 20.2656 44.8445C19.6544 44.7846 19.3122 44.74 18.7067 44.6371C18.0319 44.5224 17.6558 44.4409 16.992 44.2742C16.3567 44.1147 16.0027 44.0136 15.3811 43.8076C14.8266 43.6239 14.5176 43.5129 13.9781 43.2892C13.4834 43.084 13.2134 42.9513 12.731 42.7189C12.4041 42.5614 12.2209 42.4726 11.8996 42.3041C11.5297 42.1102 11.324 41.9977 10.9642 41.7857C10.5086 41.5173 10.257 41.3591 9.82106 41.0599C9.4265 40.7891 9.21205 40.6272 8.83376 40.3341C8.50332 40.0781 8.32332 39.9278 8.00235 39.6601C7.71525 39.4207 7.55323 39.2875 7.27487 39.038C6.63437 38.464 6.27764 38.1337 5.71597 37.4827C5.52782 37.2646 5.43122 37.1349 5.24831 36.9124C4.96488 36.5677 4.78967 36.3873 4.52082 36.0311C4.23978 35.6588 4.1065 35.4325 3.8453 35.0461C3.64077 34.7435 3.51956 34.5779 3.32567 34.2684C3.06554 33.8532 2.93772 33.6093 2.70212 33.1797C2.44941 32.7189 2.30488 32.4615 2.07856 31.9873C1.7853 31.3728 1.64232 31.0175 1.40304 30.3802C1.12617 29.6427 0.987378 29.2217 0.779485 28.462C0.614835 27.8603 0.53809 27.5183 0.415743 26.9067C0.294952 26.3028 0.226834 25.9631 0.155928 25.3514C0.0811787 24.7065 0.052002 23.6924 0.052002 23.6924Z" fill="#273E74"/>
<path d="M21.097 0.0518549C22.1908 -0.0150063 22.8093 -0.0150063 23.903 0.0518549C24.5339 0.0904173 24.8873 0.124881 25.5139 0.207385C26.1258 0.287953 26.468 0.343457 27.0728 0.466601C27.6659 0.587393 27.9972 0.665137 28.5797 0.829506C29.0923 0.974123 29.3749 1.07186 29.8788 1.24425C30.3281 1.39799 30.582 1.4802 31.022 1.659C31.5181 1.86065 31.7862 1.99769 32.2691 2.22928C32.678 2.42542 32.9093 2.53212 33.3083 2.74771C33.7643 2.99408 34.0137 3.14443 34.4515 3.42167C34.7604 3.61726 34.93 3.73266 35.231 3.94011C35.5182 4.13807 35.679 4.24976 35.9585 4.45854C36.2477 4.6746 36.406 4.80089 36.6859 5.02881C36.9537 5.24682 37.3625 5.58458 37.7772 5.96199C38.392 6.52159 38.7407 6.83649 39.2841 7.46545C39.4724 7.6834 40.0436 8.32605 40.4792 8.91706C40.756 9.29257 40.8961 9.51394 41.1548 9.90209C41.4882 10.4025 41.681 10.6801 41.9862 11.1982C42.2668 11.6746 42.4132 11.9485 42.6617 12.4424C42.9223 12.9606 43.0596 13.2561 43.2853 13.7903C43.5297 14.369 43.6568 14.6984 43.8568 15.2938C44.065 15.9135 44.1611 16.268 44.3245 16.9009C44.4595 17.4241 44.5332 17.7185 44.6363 18.2489C44.769 18.9319 44.8236 19.3195 44.8961 20.0115C44.9194 20.2339 44.9371 20.3585 44.9481 20.5818C44.961 20.8447 44.9481 21.2558 44.9481 21.2558H39.6478C39.6478 21.2558 39.4231 20.1113 39.2321 19.3894C39.0863 18.8382 39.0045 18.528 38.8164 17.9896C38.6366 17.4748 38.5163 17.1928 38.2968 16.6936C38.0707 16.1794 37.9339 15.895 37.6732 15.3975C37.4796 15.028 37.3697 14.8211 37.1536 14.4643C36.8888 14.0269 36.7275 13.7888 36.4261 13.3756C36.2303 13.1071 35.9065 12.7016 35.9065 12.7016C35.9065 12.7016 35.6585 12.3812 35.4908 12.1832C35.3331 11.997 35.2379 11.8984 35.0751 11.7166C34.8931 11.5135 34.794 11.397 34.6074 11.1982C34.2936 10.8637 34.12 10.6722 33.776 10.3687C33.56 10.178 33.4755 10.0892 33.2564 9.90209C33.0707 9.74355 32.925 9.64271 32.7368 9.48734C32.3895 9.2008 32.1716 9.06959 31.8014 8.81338C31.4407 8.5637 31.2388 8.42263 30.8661 8.19126C30.4878 7.95641 30.2687 7.83608 29.8788 7.62098C29.5769 7.45441 29.4083 7.35933 29.0993 7.20623C28.6029 6.96024 28.3136 6.84452 27.8003 6.63596C27.3779 6.46436 27.141 6.36694 26.709 6.22121C26.2284 6.0591 25.9522 5.98843 25.4619 5.85831C24.9577 5.7245 24.6742 5.65062 24.1629 5.54725C23.5187 5.41702 23.1528 5.3644 22.5 5.28803C22.0548 5.23593 21.8043 5.2126 21.3568 5.18434C20.324 5.11906 19.7396 5.1197 18.7067 5.18434C18.0961 5.22255 17.7537 5.25511 17.1478 5.33987C16.5762 5.41982 16.2577 5.48037 15.6929 5.59909C15.1823 5.70641 14.8963 5.77017 14.3938 5.91015C13.8808 6.05303 13.5969 6.14775 13.0947 6.3249C12.5191 6.52792 12.199 6.65104 11.6398 6.89517C11.1242 7.12023 10.8378 7.25419 10.3407 7.51729C9.84257 7.78092 9.56898 7.9407 9.09357 8.2431C8.8468 8.40008 8.71112 8.49231 8.47001 8.65785C8.1824 8.85532 8.02079 8.9659 7.74253 9.17628C7.40908 9.42839 7.22934 9.57931 6.91112 9.85024C6.74702 9.98996 6.65687 10.0704 6.49542 10.2131C6.29105 10.3938 6.17548 10.494 5.97579 10.6797C5.57692 11.0507 5.35634 11.2632 4.98848 11.6648C4.58009 12.1106 4.19563 12.6074 4.00118 12.8572C3.74215 13.1899 3.61255 13.3884 3.37762 13.7385C3.12392 14.1165 2.98592 14.3317 2.75407 14.7235C2.44941 15.2383 2.2851 15.5321 2.02659 16.0714C1.77944 16.5871 1.65853 16.8851 1.45499 17.4194C1.227 18.0178 1.10955 18.3585 0.935361 18.9747C0.765676 19.575 0.67699 19.9152 0.57162 20.53C0.523247 20.8122 0.467694 21.2558 0.467694 21.2558H0.0519897C0.0519897 21.2558 0.0448761 20.9081 0.0519897 20.6855C0.069558 20.1357 0.105256 19.8304 0.181907 19.2857C0.298643 18.4562 0.344248 18.3652 0.467694 17.7823C0.604928 17.1342 0.670625 16.8925 0.831435 16.3307C1.04287 15.5919 1.17885 15.1815 1.45499 14.4643C1.66043 13.9307 1.79069 13.6372 2.02659 13.1164C2.20226 12.7285 2.49425 12.1313 2.49425 12.1313C2.49425 12.1313 2.80308 11.5581 3.01388 11.1982C3.30362 10.7034 3.4709 10.4281 3.79333 9.95393C4.04628 9.5819 4.1969 9.3792 4.46885 9.02075C4.68692 8.73333 4.81132 8.57365 5.04044 8.29494C5.27772 8.00628 5.71597 7.46545 6.26158 6.89517C6.8072 6.3249 6.89496 6.23547 7.32683 5.85831C7.54382 5.66877 7.95002 5.30882 8.36609 4.97697C8.62601 4.76961 8.77415 4.65621 9.04161 4.45854C9.38087 4.20775 9.57407 4.0708 9.92498 3.83642C10.3039 3.58329 10.5216 3.44901 10.9123 3.2143C11.3327 2.96168 11.5689 2.81986 12.0035 2.59218C12.4616 2.35218 12.7299 2.24052 13.1987 2.0219C13.4618 1.89913 13.6073 1.82549 13.8742 1.71084C14.4108 1.4803 14.7236 1.37901 15.2772 1.19241C15.6602 1.06327 15.8764 0.99443 16.2645 0.881349C16.8078 0.723046 17.1147 0.639899 17.6675 0.518445C18.3712 0.363816 18.7717 0.301102 19.4862 0.207385C20.1128 0.12519 20.4662 0.0904173 21.097 0.0518549Z" fill="#A9ABAE"/>
<path d="M20.7332 15.1382H25.202L27.3325 25.6106L29.5149 15.1382H33.9837V30.0173H31.2297V18.3525L28.5276 30.0173H26.1893L23.4872 18.3525V30.0173H20.7332V15.1382Z" fill="#273E74"/>
<path d="M10.9643 15.1382H13.9262V27.5806H19.2264V30.0173H10.9124V15.1901L10.9643 15.1382Z" fill="#273E74"/>
</g>
<defs>
<clipPath id="clip0_223_2886">
<rect width="45" height="45" fill="white"/>
</clipPath>
</defs>
</svg>
