<svg width="102" height="37" viewBox="0 0 102 37" fill="none" xmlns="http://www.w3.org/2000/svg">
<path d="M34.7229 21.5675H37.1263L37.3793 22.0735L38.075 23.8444L39.1502 26.5641L40.7314 30.5487L42.0596 33.9008L42.1229 34.0906L42.1861 21.5675H44.0203L44.0836 21.6308V36.6205L44.0203 36.6837H41.4904L38.9605 30.3589L36.6836 24.6034L36.6203 36.6837H34.7229V21.5675Z" fill="#273E74"/>
<path d="M67.0425 21.5675H72.1023L72.9245 21.694L73.6835 21.947L74.3792 22.3897L74.8852 22.8957L75.3912 23.9077L75.5809 24.9196V25.8684L75.3912 26.6273L74.9485 27.5128L74.569 27.9555L73.9365 28.3983L73.4938 28.6513L74.316 28.9675L75.0117 29.4735L75.5177 30.106L75.8339 30.8017L76.0237 31.6872V33.1419L75.8339 34.0906L75.5177 34.8495L75.075 35.4188L74.5057 35.9248L73.7467 36.3042L72.8613 36.5572L71.9758 36.6837H67.0425V21.5675ZM68.9399 23.1487V28.1453H71.0271L71.9758 28.0188L72.6083 27.7658L73.1775 27.2598L73.4938 26.6273L73.6203 26.1213V25.0461L73.3673 24.2239L72.9878 23.7179L72.4185 23.3384L71.7861 23.1487H68.9399ZM68.9399 29.4735V35.1658H71.7228L72.6083 34.976L73.1143 34.723L73.6203 34.2171L73.9997 33.4581L74.1262 32.8256V31.8769L73.9365 31.1179L73.6835 30.6119L73.1775 30.0427L72.4818 29.6632L71.5963 29.4735H68.9399Z" fill="#273E74"/>
<path d="M76.1501 0.252899H81.5895L82.3484 0.379395L83.0442 0.632386L83.7399 1.07512L84.2459 1.5811L84.6254 2.21358L84.8783 2.97255L84.9416 3.35204V4.80674L84.7518 5.75546L84.3724 6.64093L83.8031 7.27341L83.2971 7.65289L82.7912 7.90588L83.4236 8.09563L83.9296 8.47511L84.3091 8.91785L84.5621 9.42383L84.7518 10.1828L84.9416 13.5349L85.1313 14.5469L85.3843 15.0529L85.6373 15.3691H83.4236L83.1707 14.8631L82.9809 13.8512L82.7279 10.499L82.5382 9.74007L82.2852 9.23409L81.7792 8.8546L81.0202 8.66486L78.0476 8.60161V15.3691H76.2134L76.1501 15.3059V0.252899ZM78.0476 1.77085V7.14691H80.3877L81.2732 7.02041L81.9057 6.76742L82.5382 6.19819L82.8544 5.50247L82.9809 4.93324V3.66828L82.7912 3.0358L82.3484 2.46657L81.8424 2.08709L81.0202 1.83409L80.5775 1.77085H78.0476Z" fill="#273E74"/>
<path d="M26.8172 21.3146H28.3984L29.3471 21.5676L30.106 21.9471L30.7385 22.453L31.3078 23.212L31.8137 24.224L32.13 25.2992L32.383 26.8804L32.4462 27.5761V30.6752L32.2565 32.3829L31.9402 33.6479L31.5607 34.5966L31.0548 35.4188L30.5488 35.9881L29.9163 36.4308L29.2206 36.747L28.4616 36.9368L27.3864 37L26.3744 36.8735L25.489 36.5573L24.7932 36.1146L24.1608 35.4821L23.6548 34.6599L23.2753 33.7111L22.959 32.5094L22.7693 31.0547L22.7061 29.9795V28.3351L22.8326 26.6274L23.0855 25.1727L23.5283 23.8445L24.0343 22.959L24.73 22.2L25.4257 21.7573L26.1847 21.4411L26.8172 21.3146ZM27.1334 22.8325L26.5009 23.0223L25.9317 23.4018L25.5522 23.8445L25.1727 24.6035L24.9197 25.4889L24.73 26.8804L24.6667 27.9556V30.359L24.7932 32.0667L25.0462 33.3317L25.4257 34.2804L25.9317 34.9129L26.5009 35.2923L27.2599 35.4821H27.9556L28.5249 35.3556L29.1573 34.9761L29.6633 34.4069L30.0428 33.6479L30.359 32.3197L30.4855 31.0547V27.1966L30.2958 25.6154L30.0428 24.6667L29.6001 23.7812L29.3471 23.465L28.8411 23.0855L28.3351 22.8958L28.0821 22.8325H27.1334Z" fill="#273E74"/>
<path d="M68.1177 -3.05176e-05H69.8886L70.8373 0.252961L71.533 0.632447L72.1655 1.13843L72.7348 1.8974L73.2407 2.90937L73.557 3.98458L73.7467 4.99655L73.8732 6.2615V9.36064L73.6835 11.0051L73.3672 12.3333L72.9877 13.282L72.6083 13.9145L72.039 14.6102L71.533 14.9897L70.6476 15.4324L69.8254 15.6222H68.1809L67.2322 15.3692L66.5997 15.0529L66.0305 14.6102L65.4613 13.9777L64.9553 13.0923L64.5125 11.7641L64.2596 10.3726L64.1331 8.60167V7.02048L64.2596 5.31278L64.5125 3.85809L64.9553 2.52988L65.4613 1.64441L66.0305 1.01193L66.663 0.505952L67.3587 0.189713L68.1177 -3.05176e-05ZM68.4972 1.51792L67.7382 1.77091L67.1057 2.34014L66.7262 2.97262L66.41 3.85809L66.2202 4.9333L66.0937 6.57774V9.10765L66.2202 10.7521L66.4732 11.9538L66.7262 12.7128L67.169 13.4085L67.7382 13.8512L68.1177 14.041L68.6869 14.1675H69.3194L70.0784 13.9777L70.6476 13.5982L71.0903 13.0923L71.4066 12.4598L71.6595 11.6376L71.8493 10.4991L71.9125 9.74013V5.88201L71.7228 4.30082L71.4066 3.16236L71.0271 2.46663L70.6476 2.0239L70.0151 1.64441L69.5091 1.51792H68.4972Z" fill="#273E74"/>
<path d="M94.5555 0.252899H97.0854L97.5281 1.77085L98.6666 6.0717L99.8683 10.5623L101.133 15.3059V15.3691H99.1726L99.0461 14.9896L98.0974 11.3845V11.1948H93.2905L93.164 11.8272L92.2153 15.3059L92.1521 15.3691H90.2546L90.3179 14.9264L91.9623 9.23409L93.3538 4.42725L94.5555 0.252899ZM95.7572 2.40332L95.2512 4.04777L94.176 7.84264L93.67 9.61357V9.67682H97.7179L97.0222 6.95717L95.8204 2.40332H95.7572Z" fill="#273E74"/>
<path d="M4.30085 0.252899H6.83076L7.2735 1.77085L8.15897 5.12298L9.10768 8.66486L10.3726 13.4084L10.8786 15.3691H8.91794L8.53845 14.0409L7.84273 11.3845V11.1948H3.03589L2.7829 12.27L1.96068 15.3059L1.89743 15.3691H0L0.126496 14.6734L1.3282 10.5623L2.52991 6.38794L3.79487 2.02384L4.30085 0.252899ZM5.50256 2.46657L5.31282 2.97255L3.41538 9.61357V9.67682H7.46324L6.76751 6.95717L5.62905 2.65632L5.50256 2.46657Z" fill="#273E74"/>
<path d="M59.453 21.5675H61.9196L62.2991 22.8957L63.2478 26.4376L64.7025 31.8769L65.9675 36.6205V36.6837H64.0068L63.7538 35.8615L62.9316 32.6991V32.5094H58.1248L57.9983 33.1419L57.0495 36.6205L56.9863 36.6837H55.0889L55.2154 36.0513L56.4171 31.8769L57.8085 27.0701L59.0735 22.706L59.3897 21.6308L59.453 21.5675ZM60.5914 23.7812L60.4017 24.2872L58.5042 30.9282L58.5675 31.0547H62.4889L62.5521 30.9282L61.1607 25.6154L60.6547 23.7812H60.5914Z" fill="#273E74"/>
<path d="M15.0529 -3.05176e-05H17.0136L18.0255 0.252961L18.7845 0.632447L19.3537 1.13843L19.7965 1.83416L20.0495 2.46663L20.2392 3.4786V4.17432H18.405L18.2153 3.03586L17.9623 2.40339L17.5828 1.96065L16.9503 1.64441L16.6341 1.58116H15.4956L14.6734 1.83416L14.2939 2.08715L13.9144 2.52988L13.6614 3.22561L13.5982 3.66834V4.23757L13.7247 4.87005L14.0409 5.50253L14.5469 6.00851L15.5589 6.51449L16.6341 6.89398L18.2153 7.46321L19.164 7.96919L19.7965 8.53842L20.2392 9.10765L20.5554 9.92987L20.6819 10.6888V11.6376L20.4922 12.7128L20.1759 13.535L19.7332 14.1675L19.164 14.7367L18.2785 15.2427L17.5195 15.4957L16.8238 15.6222H14.9896L13.8512 15.3692L12.9657 14.9265L12.5862 14.6102V14.4837H12.4597L11.9537 13.7247L11.7007 13.029L11.511 12.2068L11.4478 11.7008V10.6256H13.2819L13.3452 11.7641L13.5349 12.6495L13.8512 13.282L14.3572 13.7247L14.9896 13.9777L15.6854 14.1042H16.4443L17.2033 13.9145L17.899 13.4718L18.2785 13.029L18.5948 12.3333L18.7213 11.5111L18.5948 10.5624L18.2785 9.92987L17.7725 9.42389L17.0136 8.98116L15.6854 8.47517L14.4204 8.03244L13.4084 7.52646L12.8392 7.14697L12.3332 6.64099L11.9537 6.00851L11.7007 5.31278L11.5742 4.42732V3.85809L11.764 2.71962L12.1435 1.83416L12.5862 1.26493L13.0922 0.758943L13.7247 0.379456L14.4204 0.126465L15.0529 -3.05176e-05Z" fill="#273E74"/>
<path d="M46.1708 -3.05176e-05H48.1315L49.1434 0.252961L49.9024 0.632447L50.4716 1.13843L50.9144 1.83416L51.1674 2.46663L51.3571 3.41535V4.17432H49.5229L49.3332 3.03586L49.0802 2.40339L48.7007 1.96065L48.0682 1.64441L47.752 1.58116H46.6135L45.7913 1.83416L45.2853 2.21364L44.9058 2.78287L44.7793 3.22561L44.7161 4.17432L44.8426 4.87005L45.1588 5.50253L45.6016 5.94526L46.234 6.32475L47.3093 6.76748L49.2067 7.39996L50.2819 7.96919L50.9144 8.53842L51.3571 9.10765L51.6734 9.92987L51.7999 10.6888V11.6376L51.6734 12.4598L51.4204 13.282L50.9776 14.041L50.2819 14.7367L49.3964 15.2427L48.6375 15.4957L47.9417 15.6222H46.1076L44.9691 15.3692L44.0836 14.9265L43.7041 14.6102V14.4837H43.5776L43.1349 13.788L42.8187 13.029L42.6289 12.2068L42.5657 11.6376V10.6256H44.3999L44.4631 11.7641L44.6529 12.6495L44.9691 13.282L45.4751 13.7247L46.1076 13.9777L46.8033 14.1042H47.5622L48.3212 13.9145L49.0169 13.4718L49.3964 13.029L49.6494 12.523L49.7759 12.1435L49.8392 11.4478L49.7127 10.5624L49.3964 9.92987L48.8905 9.42389L48.1315 8.98116L46.8033 8.47517L45.5383 8.03244L44.5264 7.52646L43.9571 7.14697L43.4511 6.64099L43.0717 6.00851L42.8187 5.31278L42.6922 4.30082L42.7554 3.3521L42.9452 2.59313L43.2614 1.83416L43.7041 1.26493L44.2101 0.758943L44.8426 0.379456L45.5383 0.126465L46.1708 -3.05176e-05Z" fill="#273E74"/>
<path d="M25.6786 -3.05176e-05H27.6393L28.6513 0.252961L29.4102 0.632447L30.0427 1.20168L30.4222 1.83416L30.7384 2.65638L30.8649 3.3521V4.17432H29.0307L28.841 2.97262L28.4615 2.21364L28.0188 1.83416L27.576 1.64441L27.2598 1.58116H26.1213L25.2991 1.83416L24.7931 2.21364L24.5402 2.52988L24.2872 3.28886L24.2239 4.17432L24.4137 5.05979L24.7931 5.62902L25.2991 6.07176L26.3111 6.57774L28.7145 7.39996L29.7265 7.90594L30.3589 8.41193L30.8649 9.10765L31.1812 9.86663L31.3077 10.5624V11.7641L31.1179 12.776L30.8017 13.535L30.3589 14.1675L29.7897 14.7367L28.9042 15.2427L28.1453 15.4957L27.5128 15.6222H25.6154L24.4769 15.3692L23.5914 14.9265L22.8957 14.2307L22.3897 13.2188L22.1367 12.1435L22.0735 11.5743V10.6256H23.9077L24.0342 12.1435L24.2239 12.776L24.6034 13.4085L25.2359 13.8512L25.8684 14.041L26.3111 14.1042H27.0701L27.829 13.9145L28.4615 13.535L28.9042 13.029L29.2205 12.3965L29.347 11.7641V11.1948L29.1572 10.3726L28.7778 9.80338L28.2085 9.2974L27.1966 8.79141L25.0461 8.03244L24.0342 7.52646L23.4017 7.08372L22.959 6.64099L22.5162 5.88201L22.2632 4.99655V3.3521L22.5162 2.40339L22.8957 1.64441L23.4649 1.01193L23.9077 0.632447L24.6666 0.252961L25.6786 -3.05176e-05Z" fill="#273E74"/>
<path d="M56.7968 -3.05176e-05H58.7575L59.7694 0.252961L60.5284 0.632447L61.1609 1.20168L61.5404 1.83416L61.7934 2.46663L61.9831 3.3521V4.17432H60.1489L59.9592 2.97262L59.7062 2.40339L59.3267 1.96065L58.6942 1.64441L58.378 1.58116H57.2395L56.4173 1.83416L55.9113 2.21364L55.5951 2.65638L55.4053 3.28886L55.3421 4.11108L55.4686 4.87005L55.7848 5.50253L56.2275 5.94526L57.113 6.45125L59.8327 7.39996L60.7181 7.8427L61.2874 8.28543L61.6036 8.60167L61.9831 9.10765L62.2993 9.86663L62.4258 10.5624V11.7641L62.2361 12.776L61.9198 13.535L61.4771 14.1675L60.9079 14.7367L60.2754 15.1162L59.5164 15.4324L58.5677 15.6222H56.7335L55.5951 15.3692L54.7096 14.9265L54.0139 14.2307L53.5079 13.2188L53.2549 12.1435L53.1917 11.5743V10.6256H55.0258L55.0891 11.7008L55.2788 12.6495L55.6583 13.3453L56.2275 13.788L56.9865 14.041L57.4293 14.1042H58.1882L58.9472 13.9145L59.5797 13.535L60.0857 12.9658L60.3387 12.3965L60.4651 11.7641V11.1948L60.2754 10.3726L59.8959 9.80338L59.8327 9.61364L59.5797 9.48714L58.884 9.0444L57.619 8.53842L56.0378 7.96919L55.0258 7.46321L54.4566 7.02048L53.9506 6.45125L53.5711 5.69227L53.3814 4.9333V3.3521L53.6344 2.40339L54.0139 1.64441L54.5831 1.01193L55.2156 0.505952L56.1643 0.126465L56.7968 -3.05176e-05Z" fill="#273E74"/>
<path d="M33.2683 0.252899H41.0478V1.96059H35.1025V6.64093H40.7316V8.28537H35.1025V13.6614H41.3008V15.3691H33.2683V0.252899Z" fill="#273E74"/>
<path d="M15.7485 21.3146H17.4562L18.5314 21.5676L19.2904 21.9471L19.9229 22.5163L20.3656 23.0855L20.7451 23.971L20.9349 24.73L20.9981 25.1727V25.9949H19.1007L18.9109 24.73L18.6579 24.0342L18.2785 23.465L17.7092 23.0855L17.0767 22.8958H16.128L15.4956 23.0855L14.9896 23.4018L14.5468 23.9077L14.2306 24.5402L13.9776 25.4257L13.7879 26.6906L13.7246 27.5129V30.8017L13.8511 32.1932L14.1041 33.3317L14.4203 34.1539L14.7998 34.7231L15.2426 35.1026L15.875 35.3556L16.1913 35.4188H16.9503L17.5195 35.2923L18.0887 34.9761L18.5314 34.4701L18.8477 33.8376L19.1007 32.6992L19.2272 31.4975H21.1246V32.1932L20.8716 33.5214L20.4921 34.5334L20.1126 35.2291L19.5434 35.9248L18.7844 36.494L18.0255 36.8103L17.4562 36.9368L16.381 37L15.3691 36.8735L14.5468 36.6205L13.7246 36.1146L13.0921 35.4821L12.5862 34.6599L12.2067 33.7111L11.8904 32.3829L11.7639 31.371L11.7007 30.4223V27.9556L11.8272 26.5009L12.0802 25.1094L12.4597 23.971L12.9656 23.0223L13.6614 22.2633L14.1673 21.8838L14.7998 21.5676L15.7485 21.3146Z" fill="#273E74"/>
<path d="M45.4751 21.5675H54.9623V23.2752H51.1674V36.6837H49.27V23.2752H45.4751V21.5675Z" fill="#273E74"/>
<path d="M82.4119 21.5675H84.3093V35.0393H90.4443V36.6837H82.4119V21.5675Z" fill="#273E74"/>
<path d="M78.0479 21.5675H79.9453V36.6837H78.0479V21.5675Z" fill="#273E74"/>
<path d="M87.2185 0.252899H89.0527V15.3691H87.2185V0.252899Z" fill="#273E74"/>
<path d="M61.097 17.773H63.121L62.7415 18.3422L61.856 19.4807L60.9073 20.7457H59.6423L59.7056 20.4294L60.2116 19.4175L60.7808 18.3422L61.0338 17.8363L61.097 17.773Z" fill="#273E74"/>
</svg>
