<svg width="21" height="20" viewBox="0 0 21 20" fill="none" xmlns="http://www.w3.org/2000/svg">
<path d="M10.5 1V18.25M10.5 18.25C9.028 18.25 7.618 18.515 6.315 19M10.5 18.25C11.972 18.25 13.382 18.515 14.685 19M17.25 2.97C15.0137 2.65611 12.7582 2.49906 10.5 2.5C8.209 2.5 5.955 2.66 3.75 2.97M17.25 2.97C18.26 3.113 19.26 3.287 20.25 3.49M17.25 2.97L19.87 13.696C19.992 14.195 19.764 14.724 19.281 14.898C18.6294 15.1319 17.9423 15.2509 17.25 15.25C16.5577 15.2509 15.8706 15.1319 15.219 14.898C14.736 14.724 14.508 14.195 14.629 13.696L17.25 2.971V2.97ZM3.75 2.97C2.74 3.113 1.74 3.287 0.75 3.49M3.75 2.97L6.37 13.696C6.492 14.195 6.264 14.724 5.781 14.898C5.12943 15.1318 4.44226 15.2509 3.75 15.25C3.05774 15.2509 2.37057 15.1318 1.719 14.898C1.236 14.724 1.008 14.195 1.129 13.696L3.75 2.971V2.97Z" stroke="#08195D" stroke-width="1.2" stroke-linecap="round" stroke-linejoin="round"/>
</svg>
