<svg width="18" height="22" viewBox="0 0 18 22" fill="none" xmlns="http://www.w3.org/2000/svg">
<path d="M12.75 14.75V17M5.25 10.25H5.258V10.258H5.25V10.25ZM5.25 12.5H5.258V12.508H5.25V12.5ZM5.25 14.75H5.258V14.758H5.25V14.75ZM5.25 17H5.258V17.008H5.25V17ZM7.748 10.25H7.755V10.258H7.748V10.25ZM7.748 12.5H7.755V12.508H7.748V12.5ZM7.748 14.75H7.755V14.758H7.748V14.75ZM7.748 17H7.755V17.008H7.748V17ZM10.252 10.25H10.26V10.258H10.252V10.25ZM10.252 12.5H10.26V12.508H10.252V12.5ZM10.252 14.75H10.26V14.758H10.252V14.75ZM10.252 17H10.26V17.008H10.252V17ZM12.75 10.25H12.758V10.258H12.75V10.25ZM12.75 12.5H12.758V12.508H12.75V12.5ZM5.25 5H12.75V7.25H5.25V5ZM9 1.25C7.108 1.25 5.242 1.36 3.407 1.572C2.307 1.7 1.5 2.65 1.5 3.757V18.5C1.5 19.0967 1.73705 19.669 2.15901 20.091C2.58097 20.5129 3.15326 20.75 3.75 20.75H14.25C14.8467 20.75 15.419 20.5129 15.841 20.091C16.2629 19.669 16.5 19.0967 16.5 18.5V3.757C16.5 2.649 15.694 1.7 14.593 1.572C12.7364 1.35701 10.869 1.2495 9 1.25Z" stroke="#08195D" stroke-width="1.2" stroke-linecap="round" stroke-linejoin="round"/>
</svg>
