<svg width="24" height="24" viewBox="0 0 24 24" fill="none" xmlns="http://www.w3.org/2000/svg">
<mask id="path-1-outside-1_1193_17018" maskUnits="userSpaceOnUse" x="1.69299" y="0.124084" width="22" height="22" fill="black">
<rect fill="white" x="1.69299" y="0.124084" width="22" height="22"/>
<path d="M22.5459 11.205L21.0459 9.70497C20.9414 9.60009 20.8172 9.51688 20.6804 9.46009C20.5437 9.40331 20.3971 9.37408 20.249 9.37408C20.101 9.37408 19.9543 9.40331 19.8176 9.46009C19.6809 9.51688 19.5567 9.60009 19.4521 9.70497L19.3425 9.81466L14.1862 4.65841L14.2968 4.54872C14.4017 4.44421 14.4849 4.32001 14.5417 4.18327C14.5985 4.04652 14.6277 3.89991 14.6277 3.75185C14.6277 3.60378 14.5985 3.45717 14.5417 3.32043C14.4849 3.18368 14.4017 3.05949 14.2968 2.95497L12.7968 1.45497C12.6923 1.35009 12.5681 1.26688 12.4314 1.21009C12.2946 1.15331 12.148 1.12408 12 1.12408C11.8519 1.12408 11.7053 1.15331 11.5685 1.21009C11.4318 1.26688 11.3076 1.35009 11.2031 1.45497L5.20308 7.45497C5.0982 7.55949 5.01499 7.68368 4.95821 7.82043C4.90143 7.95717 4.8722 8.10378 4.8722 8.25185C4.8722 8.39991 4.90143 8.54652 4.95821 8.68327C5.01499 8.82001 5.0982 8.9442 5.20308 9.04872L6.70308 10.5487C6.8076 10.6536 6.93179 10.7368 7.06854 10.7936C7.20528 10.8504 7.35189 10.8796 7.49996 10.8796C7.64802 10.8796 7.79463 10.8504 7.93138 10.7936C8.06813 10.7368 8.19232 10.6536 8.29683 10.5487L8.40652 10.4381L9.59433 11.625L3.20058 18.0197C2.86226 18.3943 2.68078 18.8846 2.69363 19.3892C2.70648 19.8939 2.91268 20.3743 3.26963 20.7312C3.62657 21.0882 4.10699 21.2944 4.61163 21.3072C5.11627 21.3201 5.60656 21.1386 5.98121 20.8003L12.375 14.4056L13.5646 15.5953L13.454 15.705C13.3491 15.8095 13.2659 15.9337 13.2091 16.0704C13.1524 16.2072 13.1231 16.3538 13.1231 16.5018C13.1231 16.6499 13.1524 16.7965 13.2091 16.9333C13.2659 17.07 13.3491 17.1942 13.454 17.2987L14.954 18.7987C15.0585 18.9036 15.1827 18.9868 15.3195 19.0436C15.4562 19.1004 15.6028 19.1296 15.7509 19.1296C15.899 19.1296 16.0456 19.1004 16.1823 19.0436C16.3191 18.9868 16.4433 18.9036 16.5478 18.7987L22.5478 12.7987C22.6527 12.6942 22.7359 12.57 22.7927 12.4333C22.8494 12.2965 22.8787 12.1499 22.8787 12.0018C22.8787 11.8538 22.8494 11.7072 22.7927 11.5704C22.7359 11.4337 22.6527 11.3095 22.5478 11.205H22.5459ZM7.23465 10.0153L5.73465 8.51528C5.69978 8.48046 5.67212 8.4391 5.65325 8.39357C5.63438 8.34805 5.62466 8.29925 5.62466 8.24997C5.62466 8.20069 5.63438 8.15189 5.65325 8.10637C5.67212 8.06084 5.69978 8.01949 5.73465 7.98466L11.7346 1.98466C11.7695 1.94979 11.8108 1.92213 11.8564 1.90326C11.9019 1.88439 11.9507 1.87468 12 1.87468C12.0492 1.87468 12.098 1.88439 12.1436 1.90326C12.1891 1.92213 12.2304 1.94979 12.2653 1.98466L13.7653 3.48466C13.8354 3.55496 13.8748 3.6502 13.8748 3.7495C13.8748 3.8488 13.8354 3.94405 13.7653 4.01435L7.76527 10.0143C7.73051 10.0493 7.6892 10.077 7.64371 10.096C7.59821 10.1149 7.54943 10.1247 7.50015 10.1248C7.45087 10.1249 7.40206 10.1153 7.3565 10.0965C7.31094 10.0777 7.26954 10.0501 7.23465 10.0153ZM5.4534 20.2697C5.34306 20.3935 5.2086 20.4936 5.05824 20.5637C4.90789 20.6338 4.74481 20.6724 4.57899 20.6773C4.41318 20.6821 4.24812 20.6531 4.09392 20.5919C3.93972 20.5307 3.79963 20.4387 3.68224 20.3215C3.56484 20.2043 3.47261 20.0644 3.41119 19.9103C3.34977 19.7562 3.32045 19.5912 3.32503 19.4254C3.32962 19.2595 3.36801 19.0964 3.43785 18.9459C3.50769 18.7954 3.60752 18.6608 3.73121 18.5503L10.125 12.1556L11.8443 13.875L5.4534 20.2697ZM8.93527 9.9056L13.6556 5.18528L18.8118 10.3415L14.0915 15.0618L8.93527 9.9056ZM22.0153 12.2653L16.0153 18.2653C15.9804 18.3001 15.9391 18.3278 15.8936 18.3467C15.848 18.3656 15.7992 18.3753 15.75 18.3753C15.7007 18.3753 15.6519 18.3656 15.6064 18.3467C15.5608 18.3278 15.5195 18.3001 15.4846 18.2653L13.9846 16.7653C13.9145 16.695 13.8751 16.5997 13.8751 16.5004C13.8751 16.4011 13.9145 16.3059 13.9846 16.2356L19.9846 10.2356C20.0195 10.2007 20.0608 10.1731 20.1064 10.1542C20.1519 10.1353 20.2007 10.1256 20.25 10.1256C20.2992 10.1256 20.348 10.1353 20.3936 10.1542C20.4391 10.1731 20.4804 10.2007 20.5153 10.2356L22.0153 11.7356C22.0501 11.7704 22.0778 11.8118 22.0967 11.8573C22.1155 11.9028 22.1253 11.9516 22.1253 12.0009C22.1253 12.0502 22.1155 12.099 22.0967 12.1445C22.0778 12.19 22.0501 12.2305 22.0153 12.2653Z"/>
</mask>
<path d="M22.5459 11.205L21.0459 9.70497C20.9414 9.60009 20.8172 9.51688 20.6804 9.46009C20.5437 9.40331 20.3971 9.37408 20.249 9.37408C20.101 9.37408 19.9543 9.40331 19.8176 9.46009C19.6809 9.51688 19.5567 9.60009 19.4521 9.70497L19.3425 9.81466L14.1862 4.65841L14.2968 4.54872C14.4017 4.44421 14.4849 4.32001 14.5417 4.18327C14.5985 4.04652 14.6277 3.89991 14.6277 3.75185C14.6277 3.60378 14.5985 3.45717 14.5417 3.32043C14.4849 3.18368 14.4017 3.05949 14.2968 2.95497L12.7968 1.45497C12.6923 1.35009 12.5681 1.26688 12.4314 1.21009C12.2946 1.15331 12.148 1.12408 12 1.12408C11.8519 1.12408 11.7053 1.15331 11.5685 1.21009C11.4318 1.26688 11.3076 1.35009 11.2031 1.45497L5.20308 7.45497C5.0982 7.55949 5.01499 7.68368 4.95821 7.82043C4.90143 7.95717 4.8722 8.10378 4.8722 8.25185C4.8722 8.39991 4.90143 8.54652 4.95821 8.68327C5.01499 8.82001 5.0982 8.9442 5.20308 9.04872L6.70308 10.5487C6.8076 10.6536 6.93179 10.7368 7.06854 10.7936C7.20528 10.8504 7.35189 10.8796 7.49996 10.8796C7.64802 10.8796 7.79463 10.8504 7.93138 10.7936C8.06813 10.7368 8.19232 10.6536 8.29683 10.5487L8.40652 10.4381L9.59433 11.625L3.20058 18.0197C2.86226 18.3943 2.68078 18.8846 2.69363 19.3892C2.70648 19.8939 2.91268 20.3743 3.26963 20.7312C3.62657 21.0882 4.10699 21.2944 4.61163 21.3072C5.11627 21.3201 5.60656 21.1386 5.98121 20.8003L12.375 14.4056L13.5646 15.5953L13.454 15.705C13.3491 15.8095 13.2659 15.9337 13.2091 16.0704C13.1524 16.2072 13.1231 16.3538 13.1231 16.5018C13.1231 16.6499 13.1524 16.7965 13.2091 16.9333C13.2659 17.07 13.3491 17.1942 13.454 17.2987L14.954 18.7987C15.0585 18.9036 15.1827 18.9868 15.3195 19.0436C15.4562 19.1004 15.6028 19.1296 15.7509 19.1296C15.899 19.1296 16.0456 19.1004 16.1823 19.0436C16.3191 18.9868 16.4433 18.9036 16.5478 18.7987L22.5478 12.7987C22.6527 12.6942 22.7359 12.57 22.7927 12.4333C22.8494 12.2965 22.8787 12.1499 22.8787 12.0018C22.8787 11.8538 22.8494 11.7072 22.7927 11.5704C22.7359 11.4337 22.6527 11.3095 22.5478 11.205H22.5459ZM7.23465 10.0153L5.73465 8.51528C5.69978 8.48046 5.67212 8.4391 5.65325 8.39357C5.63438 8.34805 5.62466 8.29925 5.62466 8.24997C5.62466 8.20069 5.63438 8.15189 5.65325 8.10637C5.67212 8.06084 5.69978 8.01949 5.73465 7.98466L11.7346 1.98466C11.7695 1.94979 11.8108 1.92213 11.8564 1.90326C11.9019 1.88439 11.9507 1.87468 12 1.87468C12.0492 1.87468 12.098 1.88439 12.1436 1.90326C12.1891 1.92213 12.2304 1.94979 12.2653 1.98466L13.7653 3.48466C13.8354 3.55496 13.8748 3.6502 13.8748 3.7495C13.8748 3.8488 13.8354 3.94405 13.7653 4.01435L7.76527 10.0143C7.73051 10.0493 7.6892 10.077 7.64371 10.096C7.59821 10.1149 7.54943 10.1247 7.50015 10.1248C7.45087 10.1249 7.40206 10.1153 7.3565 10.0965C7.31094 10.0777 7.26954 10.0501 7.23465 10.0153ZM5.4534 20.2697C5.34306 20.3935 5.2086 20.4936 5.05824 20.5637C4.90789 20.6338 4.74481 20.6724 4.57899 20.6773C4.41318 20.6821 4.24812 20.6531 4.09392 20.5919C3.93972 20.5307 3.79963 20.4387 3.68224 20.3215C3.56484 20.2043 3.47261 20.0644 3.41119 19.9103C3.34977 19.7562 3.32045 19.5912 3.32503 19.4254C3.32962 19.2595 3.36801 19.0964 3.43785 18.9459C3.50769 18.7954 3.60752 18.6608 3.73121 18.5503L10.125 12.1556L11.8443 13.875L5.4534 20.2697ZM8.93527 9.9056L13.6556 5.18528L18.8118 10.3415L14.0915 15.0618L8.93527 9.9056ZM22.0153 12.2653L16.0153 18.2653C15.9804 18.3001 15.9391 18.3278 15.8936 18.3467C15.848 18.3656 15.7992 18.3753 15.75 18.3753C15.7007 18.3753 15.6519 18.3656 15.6064 18.3467C15.5608 18.3278 15.5195 18.3001 15.4846 18.2653L13.9846 16.7653C13.9145 16.695 13.8751 16.5997 13.8751 16.5004C13.8751 16.4011 13.9145 16.3059 13.9846 16.2356L19.9846 10.2356C20.0195 10.2007 20.0608 10.1731 20.1064 10.1542C20.1519 10.1353 20.2007 10.1256 20.25 10.1256C20.2992 10.1256 20.348 10.1353 20.3936 10.1542C20.4391 10.1731 20.4804 10.2007 20.5153 10.2356L22.0153 11.7356C22.0501 11.7704 22.0778 11.8118 22.0967 11.8573C22.1155 11.9028 22.1253 11.9516 22.1253 12.0009C22.1253 12.0502 22.1155 12.099 22.0967 12.1445C22.0778 12.19 22.0501 12.2305 22.0153 12.2653Z" fill="#08195D"/>
<path d="M22.5459 11.205L21.0459 9.70497C20.9414 9.60009 20.8172 9.51688 20.6804 9.46009C20.5437 9.40331 20.3971 9.37408 20.249 9.37408C20.101 9.37408 19.9543 9.40331 19.8176 9.46009C19.6809 9.51688 19.5567 9.60009 19.4521 9.70497L19.3425 9.81466L14.1862 4.65841L14.2968 4.54872C14.4017 4.44421 14.4849 4.32001 14.5417 4.18327C14.5985 4.04652 14.6277 3.89991 14.6277 3.75185C14.6277 3.60378 14.5985 3.45717 14.5417 3.32043C14.4849 3.18368 14.4017 3.05949 14.2968 2.95497L12.7968 1.45497C12.6923 1.35009 12.5681 1.26688 12.4314 1.21009C12.2946 1.15331 12.148 1.12408 12 1.12408C11.8519 1.12408 11.7053 1.15331 11.5685 1.21009C11.4318 1.26688 11.3076 1.35009 11.2031 1.45497L5.20308 7.45497C5.0982 7.55949 5.01499 7.68368 4.95821 7.82043C4.90143 7.95717 4.8722 8.10378 4.8722 8.25185C4.8722 8.39991 4.90143 8.54652 4.95821 8.68327C5.01499 8.82001 5.0982 8.9442 5.20308 9.04872L6.70308 10.5487C6.8076 10.6536 6.93179 10.7368 7.06854 10.7936C7.20528 10.8504 7.35189 10.8796 7.49996 10.8796C7.64802 10.8796 7.79463 10.8504 7.93138 10.7936C8.06813 10.7368 8.19232 10.6536 8.29683 10.5487L8.40652 10.4381L9.59433 11.625L3.20058 18.0197C2.86226 18.3943 2.68078 18.8846 2.69363 19.3892C2.70648 19.8939 2.91268 20.3743 3.26963 20.7312C3.62657 21.0882 4.10699 21.2944 4.61163 21.3072C5.11627 21.3201 5.60656 21.1386 5.98121 20.8003L12.375 14.4056L13.5646 15.5953L13.454 15.705C13.3491 15.8095 13.2659 15.9337 13.2091 16.0704C13.1524 16.2072 13.1231 16.3538 13.1231 16.5018C13.1231 16.6499 13.1524 16.7965 13.2091 16.9333C13.2659 17.07 13.3491 17.1942 13.454 17.2987L14.954 18.7987C15.0585 18.9036 15.1827 18.9868 15.3195 19.0436C15.4562 19.1004 15.6028 19.1296 15.7509 19.1296C15.899 19.1296 16.0456 19.1004 16.1823 19.0436C16.3191 18.9868 16.4433 18.9036 16.5478 18.7987L22.5478 12.7987C22.6527 12.6942 22.7359 12.57 22.7927 12.4333C22.8494 12.2965 22.8787 12.1499 22.8787 12.0018C22.8787 11.8538 22.8494 11.7072 22.7927 11.5704C22.7359 11.4337 22.6527 11.3095 22.5478 11.205H22.5459ZM7.23465 10.0153L5.73465 8.51528C5.69978 8.48046 5.67212 8.4391 5.65325 8.39357C5.63438 8.34805 5.62466 8.29925 5.62466 8.24997C5.62466 8.20069 5.63438 8.15189 5.65325 8.10637C5.67212 8.06084 5.69978 8.01949 5.73465 7.98466L11.7346 1.98466C11.7695 1.94979 11.8108 1.92213 11.8564 1.90326C11.9019 1.88439 11.9507 1.87468 12 1.87468C12.0492 1.87468 12.098 1.88439 12.1436 1.90326C12.1891 1.92213 12.2304 1.94979 12.2653 1.98466L13.7653 3.48466C13.8354 3.55496 13.8748 3.6502 13.8748 3.7495C13.8748 3.8488 13.8354 3.94405 13.7653 4.01435L7.76527 10.0143C7.73051 10.0493 7.6892 10.077 7.64371 10.096C7.59821 10.1149 7.54943 10.1247 7.50015 10.1248C7.45087 10.1249 7.40206 10.1153 7.3565 10.0965C7.31094 10.0777 7.26954 10.0501 7.23465 10.0153ZM5.4534 20.2697C5.34306 20.3935 5.2086 20.4936 5.05824 20.5637C4.90789 20.6338 4.74481 20.6724 4.57899 20.6773C4.41318 20.6821 4.24812 20.6531 4.09392 20.5919C3.93972 20.5307 3.79963 20.4387 3.68224 20.3215C3.56484 20.2043 3.47261 20.0644 3.41119 19.9103C3.34977 19.7562 3.32045 19.5912 3.32503 19.4254C3.32962 19.2595 3.36801 19.0964 3.43785 18.9459C3.50769 18.7954 3.60752 18.6608 3.73121 18.5503L10.125 12.1556L11.8443 13.875L5.4534 20.2697ZM8.93527 9.9056L13.6556 5.18528L18.8118 10.3415L14.0915 15.0618L8.93527 9.9056ZM22.0153 12.2653L16.0153 18.2653C15.9804 18.3001 15.9391 18.3278 15.8936 18.3467C15.848 18.3656 15.7992 18.3753 15.75 18.3753C15.7007 18.3753 15.6519 18.3656 15.6064 18.3467C15.5608 18.3278 15.5195 18.3001 15.4846 18.2653L13.9846 16.7653C13.9145 16.695 13.8751 16.5997 13.8751 16.5004C13.8751 16.4011 13.9145 16.3059 13.9846 16.2356L19.9846 10.2356C20.0195 10.2007 20.0608 10.1731 20.1064 10.1542C20.1519 10.1353 20.2007 10.1256 20.25 10.1256C20.2992 10.1256 20.348 10.1353 20.3936 10.1542C20.4391 10.1731 20.4804 10.2007 20.5153 10.2356L22.0153 11.7356C22.0501 11.7704 22.0778 11.8118 22.0967 11.8573C22.1155 11.9028 22.1253 11.9516 22.1253 12.0009C22.1253 12.0502 22.1155 12.099 22.0967 12.1445C22.0778 12.19 22.0501 12.2305 22.0153 12.2653Z" stroke="#08195D" stroke-width="0.2" mask="url(#path-1-outside-1_1193_17018)"/>
</svg>
