<svg width="18" height="18" viewBox="0 0 18 18" fill="none" xmlns="http://www.w3.org/2000/svg">
<path d="M10.25 13.625H13.625M13.625 13.625H17M13.625 13.625V10.25M13.625 13.625V17M2.75 7.25H5C5.59674 7.25 6.16903 7.01295 6.59099 6.59099C7.01295 6.16903 7.25 5.59674 7.25 5V2.75C7.25 2.15326 7.01295 1.58097 6.59099 1.15901C6.16903 0.737053 5.59674 0.5 5 0.5H2.75C2.15326 0.5 1.58097 0.737053 1.15901 1.15901C0.737053 1.58097 0.5 2.15326 0.5 2.75V5C0.5 5.59674 0.737053 6.16903 1.15901 6.59099C1.58097 7.01295 2.15326 7.25 2.75 7.25ZM2.75 17H5C5.59674 17 6.16903 16.7629 6.59099 16.341C7.01295 15.919 7.25 15.3467 7.25 14.75V12.5C7.25 11.9033 7.01295 11.331 6.59099 10.909C6.16903 10.4871 5.59674 10.25 5 10.25H2.75C2.15326 10.25 1.58097 10.4871 1.15901 10.909C0.737053 11.331 0.5 11.9033 0.5 12.5V14.75C0.5 15.3467 0.737053 15.919 1.15901 16.341C1.58097 16.7629 2.15326 17 2.75 17ZM12.5 7.25H14.75C15.3467 7.25 15.919 7.01295 16.341 6.59099C16.7629 6.16903 17 5.59674 17 5V2.75C17 2.15326 16.7629 1.58097 16.341 1.15901C15.919 0.737053 15.3467 0.5 14.75 0.5H12.5C11.9033 0.5 11.331 0.737053 10.909 1.15901C10.4871 1.58097 10.25 2.15326 10.25 2.75V5C10.25 5.59674 10.4871 6.16903 10.909 6.59099C11.331 7.01295 11.9033 7.25 12.5 7.25Z" stroke="#08195D" stroke-linecap="round" stroke-linejoin="round"/>
</svg>
