<svg width="22" height="19" viewBox="0 0 22 19" fill="none" xmlns="http://www.w3.org/2000/svg">
<path d="M16.0592 12.521C16.527 12.2015 17.0757 12.0211 17.6418 12.0004C18.2079 11.9798 18.7682 12.1199 19.258 12.4044C19.7479 12.689 20.1471 13.1064 20.4096 13.6084C20.672 14.1104 20.787 14.6764 20.7412 15.241C19.5414 15.6603 18.267 15.8235 17.0002 15.72C16.9963 14.5866 16.67 13.4768 16.0592 12.522C15.5171 11.6718 14.7693 10.972 13.8851 10.4875C13.0008 10.003 12.0086 9.74932 11.0002 9.75C9.99207 9.74948 9.00006 10.0032 8.11596 10.4877C7.23186 10.9723 6.48423 11.6719 5.94223 12.522M16.9992 15.719L17.0002 15.75C17.0002 15.975 16.9882 16.197 16.9632 16.416C15.1486 17.4571 13.0923 18.0033 11.0002 18C8.83023 18 6.79323 17.424 5.03723 16.416C5.01152 16.1846 4.99917 15.9519 5.00023 15.719M5.00023 15.719C3.73386 15.8263 2.46014 15.6637 1.26123 15.242C1.21558 14.6776 1.33062 14.1117 1.59306 13.6099C1.85549 13.1081 2.2546 12.6908 2.74423 12.4063C3.23386 12.1218 3.79403 11.9817 4.35995 12.0021C4.92587 12.0226 5.47444 12.2028 5.94223 12.522M5.00023 15.719C5.00382 14.5857 5.33185 13.4769 5.94223 12.522M14.0002 3.75C14.0002 4.54565 13.6842 5.30871 13.1215 5.87132C12.5589 6.43393 11.7959 6.75 11.0002 6.75C10.2046 6.75 9.44152 6.43393 8.87891 5.87132C8.3163 5.30871 8.00023 4.54565 8.00023 3.75C8.00023 2.95435 8.3163 2.19129 8.87891 1.62868C9.44152 1.06607 10.2046 0.75 11.0002 0.75C11.7959 0.75 12.5589 1.06607 13.1215 1.62868C13.6842 2.19129 14.0002 2.95435 14.0002 3.75ZM20.0002 6.75C20.0002 7.04547 19.942 7.33806 19.829 7.61104C19.7159 7.88402 19.5502 8.13206 19.3412 8.34099C19.1323 8.54992 18.8842 8.71566 18.6113 8.82873C18.3383 8.9418 18.0457 9 17.7502 9C17.4548 9 17.1622 8.9418 16.8892 8.82873C16.6162 8.71566 16.3682 8.54992 16.1592 8.34099C15.9503 8.13206 15.7846 7.88402 15.6715 7.61104C15.5584 7.33806 15.5002 7.04547 15.5002 6.75C15.5002 6.15326 15.7373 5.58097 16.1592 5.15901C16.5812 4.73705 17.1535 4.5 17.7502 4.5C18.347 4.5 18.9193 4.73705 19.3412 5.15901C19.7632 5.58097 20.0002 6.15326 20.0002 6.75ZM6.50023 6.75C6.50023 7.04547 6.44203 7.33806 6.32896 7.61104C6.21589 7.88402 6.05015 8.13206 5.84122 8.34099C5.63229 8.54992 5.38425 8.71566 5.11127 8.82873C4.83828 8.9418 4.5457 9 4.25023 9C3.95476 9 3.66217 8.9418 3.38919 8.82873C3.11621 8.71566 2.86817 8.54992 2.65924 8.34099C2.45031 8.13206 2.28457 7.88402 2.1715 7.61104C2.05843 7.33806 2.00023 7.04547 2.00023 6.75C2.00023 6.15326 2.23728 5.58097 2.65924 5.15901C3.0812 4.73705 3.65349 4.5 4.25023 4.5C4.84697 4.5 5.41926 4.73705 5.84122 5.15901C6.26318 5.58097 6.50023 6.15326 6.50023 6.75Z" stroke="#08195D" stroke-width="1.2" stroke-linecap="round" stroke-linejoin="round"/>
</svg>
